<svg xmlns="http://www.w3.org/2000/svg" role="img" aria-labelledby="portraitTitle" viewBox="-30 0 600 600"><title id="portraitTitle">Illustrated portrait of Jennifer</title><style>.bg{fill:#242121}@media (prefers-color-scheme:dark){.bg{fill:#ddd}}</style><defs><clipPath id="a" clipPathUnits="userSpaceOnUse"><circle cx="250" cy="250" r="240"/></clipPath></defs><circle class="bg" cx="250" cy="250" r="250"/><svg clip-path="url(#a)"><path fill="#41253b" d="M341.01 8.6c11.8.82 23.48 4.17 32.99 11.41 12.64 10.02 23.09 22.94 29.28 37.9-.19.88-.4 1.75-.64 2.61-1.22.02-2.44-.09-3.66-.2-5.69-10.78-13.14-21.31-22-29.72-2.62-2.62-5.47-4.91-8.63-6.87-10.31-7.08-22.87-10.34-35.32-8.77-5.8.92-10.1 4.12-15.01 7.08 1.56-1.96 3.5-3.52 5.17-5.36.76-1.42-.04-2.23-1.1-3.13 5.65-3.84 12.13-5.33 18.92-4.95"/><path fill="#281228" d="M322.09 13.55c1.06.9 1.86 1.71 1.1 3.13-1.67 1.84-3.61 3.4-5.17 5.36-2.11 2.81-7.05 7.74-4.79 11.44 5.59 0 11.07.27 16.65.64 3.63-3.41 6.09-7.28 10.98-9.19 2.29-.33 4.59-.59 6.9-.81q-1.35.945-2.73 1.86c-4.51 2.14-10.41 5.34-12.59 10.08 1.04 3.25 3.02 6.26 4.7 9.22 1.34 2.3 2.69 4.48 4.59 6.38 1.76 1.83 3.61 3.58 5.42 5.37 1.77 2.37 3.57 4.71 5.63 6.84 12.21 13.58 20.51 31.75 26.52 48.84 2.53 6.9 4.19 14.01 5.81 21.16 1.26 5.97 2.12 11.96 1.65 18.08-.59 7.77-.4 16.08-2.26 23.59-1.67 7.07-4.02 13.9-7.82 20.12-1.62 2.66-1.85 4.15-1.48 7.25l-1.34.94c-1.91-2.63-2.36-5.57-3.12-8.65 1.2-6.74 5.16-12.2 6.69-18.82 2.51-10.08 3.63-20.66 1.68-30.94a78 78 0 0 0-1.83-14.69c-1.23-6.16-2.9-12.1-5.15-17.97-.93-2.74-1.99-5.43-2.99-8.15-.36-1.08-.72-2.14-1.18-3.19-.82.44-1.62.92-2.43 1.37.04-2.65.35-5.08-.8-7.59-2.3-5.37-5.55-11.37-8.78-16.24l-.77 1.03c-1.49 2.05-2.81 4.21-4.08 6.39l-1.11-3.3c1.24-1.63 2.73-3.37 3.47-5.3-.79-3.79-3.58-7.37-5.75-10.52-2.07-2.62-4.08-5.69-6.78-7.69-.57.11-1.15.24-1.72.39-1.33-.31-2.5-.78-3.52-1.71.44-.75.86-1.51 1.25-2.28-4.09-4.22-9.38-7.74-14.7-10.23-3.21-1.84-6.96-2.35-10.16-3.97-.71-2.69-1.03-2.82-3.61-3.72-10.64-3.91-21.7-7.71-32.93-9.41-12.65-1.29-25.9-1.9-38.47.35-1.32 0-2.73.09-4.03-.2-.28-.63-.56-1.27-.84-1.9-8.47 1.15-15.89 6.93-24.15 8.26-.82-1.25-1.15-2.88-1.51-4.32 2.59-.87 5.2-1.67 7.78-2.54 18.59-6.69 39.23-8.22 58.75-5.66 8.76 1.36 17.32 2.62 25.73 5.56 2.79.84 5.77 2.28 8.7 2.36 1.83-2.6 3.09-5.55 4.92-8.16 2.47-3.61 6.05-6.49 9.67-8.86"/><path fill="#e8c5d3" d="M333.03 14.96c12.45-1.57 25.01 1.69 35.32 8.77-.12.95-.25 1.89-.37 2.83-3.55-1.6-7.36-3.55-11.2-4.25-5.43-.81-11.07-.02-15.92 2.62-4.89 1.91-7.35 5.78-10.98 9.19-5.58-.37-11.06-.64-16.65-.64-2.26-3.7 2.68-8.63 4.79-11.44 4.91-2.96 9.21-6.16 15.01-7.08"/><path fill="#5f346b" d="M356.78 22.31c3.84.7 7.65 2.65 11.2 4.25 1 1.49 1.97 2.99 2.97 4.47-.9-.52-1.8-1.03-2.71-1.53-4.45-3.4-10.57-5.51-16.18-4.57-2.35.29-4.69.66-7.03 1.05q1.38-.915 2.73-1.86c-2.31.22-4.61.48-6.9.81 4.85-2.64 10.49-3.43 15.92-2.62"/><path fill="#cfaac0" d="M368.35 23.73c3.16 1.96 6.01 4.25 8.63 6.87l-1.45.64c1.24 2.05 3.97 4.06 4.15 6.5l-1.56.72c-2.67-2.25-5.06-4.64-7.17-7.43-1-1.48-1.97-2.98-2.97-4.47.12-.94.25-1.88.37-2.83"/><path fill="#e8c7db" d="M352.06 24.93c5.61-.94 11.73 1.17 16.18 4.57-.86.11-1.72.23-2.58.37.51 1.08 1.06 2.13 1.51 3.23.04 1.47-1.19 2.88-1.64 4.27 1.99 2.84 5.17 4.98 7.72 7.32-1.74-.26-3.49-.48-5.23-.75-7.25-2.14-14.33-3.65-21.94-2.71-3.14.66-6.06 2.68-8.94 4.05-1.68-2.96-3.66-5.97-4.7-9.22 2.18-4.74 8.08-7.94 12.59-10.08 2.34-.39 4.68-.76 7.03-1.05"/><path fill="#341e3b" d="M232.2 26.91c.28.63.56 1.27.84 1.9 1.3.29 2.71.2 4.03.2-.82.32-1.64.65-2.46.97-2.65.42-5.25.95-7.84 1.65-7.73 1.55-14.84 4.61-22.2 7.32-11.22 2.71-21.04 8.55-29.93 15.75-3.39 2.15-5.66 4.77-8.14 7.84-2.96 1.85-6.55 2.57-9.54 4.46-8.53 4.78-16.09 10.69-23.29 17.26-2.04 1.5-4.08 2.98-5.95 4.69-4.32 3.65-7.03 8.3-9.64 13.23-1.59 3.21-2.41 6.59-4.04 9.77-.11-1.36-.2-2.72-.27-4.09 2.53-8.4 7.77-16.1 13.3-22.82 6.98-6.96 14.28-13.39 22.34-19.1 4.19-1.71 8.75-3.48 12.46-6.09 4.11-2.88 7.19-6.72 10.84-10.14 4.47-4.25 10.02-7.62 15.41-10.56 6-3.2 11.92-6.24 18.42-8.3.36 1.44.69 3.07 1.51 4.32 8.26-1.33 15.68-7.11 24.15-8.26"/><path fill="#eacedd" d="M275.54 28.66c11.23 1.7 22.29 5.5 32.93 9.41-1.83 3.05-5.44 2.85-8.52 4.04-6.18 1.82-12.03 5.9-17.27 9.57-4.52 3.12-8.2 7.21-12.67 10.36-2.79-7.76-5.05-14.93-11.3-20.75-6.9-6.34-15.93-7.57-24.1-11.31.82-.32 1.64-.65 2.46-.97 12.57-2.25 25.82-1.64 38.47-.35"/><path fill="#71548d" d="M234.61 29.98c8.17 3.74 17.2 4.97 24.1 11.31 6.25 5.82 8.51 12.99 11.3 20.75 4.47-3.15 8.15-7.24 12.67-10.36 5.24-3.67 11.09-7.75 17.27-9.57 3.08-1.19 6.69-.99 8.52-4.04 2.58.9 2.9 1.03 3.61 3.72 3.2 1.62 6.95 2.13 10.16 3.97-3.02-.67-5.99-1.49-8.99-2.19-2.66-.67-5.16.21-7.72.93-7.37 2.29-14.4 5.88-20.73 10.29-5.29 3.08-10.07 6.69-13.58 11.79-.75.83-1.5 1.66-2.25 2.48-.99-3.68-1.13-7.41-1.36-11.19-1.43 2.71-.59 5.82-2.19 8.35-.3-7.94-2.8-17.23-8.94-22.71-3.83-3.82-8.32-6.89-13.5-8.57-5.48-1.7-10.37-3.69-16.21-3.31 2.59-.7 5.19-1.23 7.84-1.65"/><path fill="#fcf2f4" d="M365.66 29.87c.86-.14 1.72-.26 2.58-.37.91.5 1.81 1.01 2.71 1.53 2.11 2.79 4.5 5.18 7.17 7.43 2.79 3.72 5.08 7.76 7.97 11.41 1.81 2.27 3.42 4.58 4.93 7.05l-1.84-.02-1.09-.9c-4.15-5.13-9.71-7.37-14.84-11.31-2.55-2.34-5.73-4.48-7.72-7.32.45-1.39 1.68-2.8 1.64-4.27-.45-1.1-1-2.15-1.51-3.23"/><path fill="#e7c8d9" d="m375.53 31.24 1.45-.64c8.86 8.41 16.31 18.94 22 29.72 2.71 5.86.71 11.87 3.06 17.74 2.83 7.66 3.9 15.62 4.25 23.75-.44 8.35-.1 16.75-.7 25.08-1.9-.78-2.67-2.38-3.73-4.03-.41-4.02-.93-8.11-1.93-12.03-.93-3.56-2.6-6.51-4-9.88-1.27-3.01-2.43-6.04-4-8.92-3.92-7.11-8.85-13.63-14.71-19.25-5.38-5.65-11.06-10.61-18.36-13.61-3.75-1.52-7.76-1.6-11.71-2.14-1.81-1.79-3.66-3.54-5.42-5.37 2.49-1.14 6.21-.65 8.21-2.47-3.26-1.78-7.21.65-10.14-1.2 2.24-3.35 5.55-3.19 9.18-3.26 6.89.31 12.54-1.54 19.03 1.57 2.66 1.27 5.32 2.5 8.04 3.61 4.19 1.71 7.93 4.23 12.04 6.09l1.09.9c2.34 3.38 4.55 6.68 7.9 9.18-1.26-3.62-3.68-6.26-6.06-9.16a69 69 0 0 0-4.93-7.05c-2.89-3.65-5.18-7.69-7.97-11.41l1.56-.72c-.18-2.44-2.91-4.45-4.15-6.5"/><path fill="#eac6da" d="M226.77 31.63c5.84-.38 10.73 1.61 16.21 3.31 5.18 1.68 9.67 4.75 13.5 8.57 6.14 5.48 8.64 14.77 8.94 22.71-1.64 2.97-3.18 5.96-4.51 9.08-.63-1.79-1.28-3.57-1.88-5.37-1.93-6.92-6.25-12.69-11.22-17.74-7.1-6.63-17.47-10.11-26.8-12.12-4.51-1.06-8.96-.72-13.47.15-.99-.44-1.98-.86-2.97-1.27 7.36-2.71 14.47-5.77 22.2-7.32"/><path fill="#eacedc" d="M204.57 38.95c.99.41 1.98.83 2.97 1.27 1.12 2.29 3.25 1.66 5.39 2 7.06.26 13.92 1.41 20.32 4.51 5.4 2.7 11.31 6.1 15.13 10.87 3.01 3.64 5.1 7.79 6.74 12.2.24 2.04.39 4.09.4 6.14-1.6-.83-3.11-1.79-4.59-2.81-3.42-3.63-7.09-6.98-10.76-10.34-6.33-6.56-15.35-9.68-24.01-11.77-5.03-1.21-9.98-1.88-15.08-.59 6.75 1.35 13.45 1.87 19.9 4.58 6.08 2.26 10.6 6.34 15.9 10.05 5.85 5.2 11.45 11.01 14.93 18.11 1.24 2.42 1.38 4.99 1.31 7.66-1.14 1.22-1.88.64-3.27.42-4.34-3.79-9.08-6.94-13.75-10.34-8.12-5.87-18.09-8.99-28.13-8.41-6.23.04-12.4 3.47-17.05 7.41-5.68 4.91-8.85 11.07-12.05 17.7-4.34 9.02-7.63 18.6-11.29 27.91-3.9 9.51-6.64 19.38-10.78 28.8-.87-5.43 1.77-9.26 3.09-14.39 1.57-5.95 3.76-11.66 5.81-17.45.36-1.42 1.21-2.97.28-4.34-2.53.59-4.71 1.89-7.15 2.69-3.83.15-7.46-2.06-10.94.17 1.99 1.48 5.03 1.27 7.24 2.66-2.89.28-5.84.21-8.7.67-.77 2.22-.93 4.83-2.04 6.89-1.23.79-2.97 1.16-3.94 2.26-1.51 2.32-2.42 4.83-4.33 6.91-.87-2.22-1.45-4.39-1.98-6.72a90 90 0 0 1 6.8-18.7c5.19-11.49 10.79-23.55 18.33-33.7 6.01-6.46 12.82-13.79 21.36-16.66 3.82-1.57 9.27-3.5 11.27-7.39-5.83.86-11.08 3.41-17.04 3.79 1.3-1.07 2.8-1.61 3.89-2.89-2.25.39-4.5.7-6.77.86.8-1.47 1.7-2.9 2.66-4.28 8.89-7.2 18.71-13.04 29.93-15.75"/><path fill="#6f497d" d="M221.01 40.07c9.33 2.01 19.7 5.49 26.8 12.12 4.97 5.05 9.29 10.82 11.22 17.74.14 2.39.09 4.75-.13 7.14-1.72-2.2-2.76-4.69-3.78-7.27-1.64-4.41-3.73-8.56-6.74-12.2-3.82-4.77-9.73-8.17-15.13-10.87-6.4-3.1-13.26-4.25-20.32-4.51-2.14-.34-4.27.29-5.39-2 4.51-.87 8.96-1.21 13.47-.15"/><path fill="#9b729d" d="M346.08 41.23c7.61-.94 14.69.57 21.94 2.71.53.44 1.05.9 1.56 1.37-.51.34-1.03.67-1.57.99-6.49-3.11-12.14-1.26-19.03-1.57-3.63.07-6.94-.09-9.18 3.26 2.93 1.85 6.88-.58 10.14 1.2-2 1.82-5.72 1.33-8.21 2.47-1.9-1.9-3.25-4.08-4.59-6.38 2.88-1.37 5.8-3.39 8.94-4.05"/><path fill="#e7cada" d="M313.25 43.57c3 .7 5.97 1.52 8.99 2.19 5.32 2.49 10.61 6.01 14.7 10.23-.39.77-.81 1.53-1.25 2.28-10.05 6.07-20.24 15.04-31.3 20.13-3.63 1.69-7.17 2.08-11.13 1.63-2.75-.65-5.55-.97-8.35-1.35 2.47-.78 4.93-1.29 7.5-1.66-.29-.67-.58-1.35-.86-2.06 1.53-.28 3.23-.16 4.67-.72 1.56-.82 2.89-2.19 4.1-3.45-1.65-1.1-3.56.42-5.26.85.47-1.26.98-2.51 1.46-3.77-1.71.3-3.37.75-5.07 1.1.59-2.07 4.11-6.27 1.35-7.77-1.77-.12-3.5 1.69-5.33 1.86-2.72.17-5.48-.08-8.18-.34 1.64-2.76 3.58-5.36 5.51-7.93 6.33-4.41 13.36-8 20.73-10.29 2.56-.72 5.06-1.6 7.72-.93"/><path fill="#c69fc0" d="M368.02 43.94c1.74.27 3.49.49 5.23.75 5.13 3.94 10.69 6.18 14.84 11.31-4.11-1.86-7.85-4.38-12.04-6.09-2.72-1.11-5.38-2.34-8.04-3.61.54-.32 1.06-.65 1.57-.99-.51-.47-1.03-.93-1.56-1.37"/><path fill="#826199" d="M216.16 51.02c8.66 2.09 17.68 5.21 24.01 11.77-1.1.75-2.19 1.51-3.29 2.27-5.3-3.71-9.82-7.79-15.9-10.05-6.45-2.71-13.15-3.23-19.9-4.58 5.1-1.29 10.05-.62 15.08.59"/><path fill="#75466b" d="M174.64 54.7c-.96 1.38-1.86 2.81-2.66 4.28 2.27-.16 4.52-.47 6.77-.86-1.09 1.28-2.59 1.82-3.89 2.89-4.81 1.4-9.59 3.84-14.05 5.75l-3.85.24c2.99-1.89 6.58-2.61 9.54-4.46 2.48-3.07 4.75-5.69 8.14-7.84"/><path fill="#d9b5ca" d="M284.8 54.79c-1.93 2.57-3.87 5.17-5.51 7.93 2.7.26 5.46.51 8.18.34 1.83-.17 3.56-1.98 5.33-1.86 2.76 1.5-.76 5.7-1.35 7.77 1.7-.35 3.36-.8 5.07-1.1-.48 1.26-.99 2.51-1.46 3.77 1.7-.43 3.61-1.95 5.26-.85-1.21 1.26-2.54 2.63-4.1 3.45-1.44.56-3.14.44-4.67.72.28.71.57 1.39.86 2.06-2.57.37-5.03.88-7.5 1.66 2.8.38 5.6.7 8.35 1.35-6.37.38-12.73.03-19.1.19-.97-.1-1.94-.22-2.9-.36 2.04-3.29 4.96-5.31 7.66-7.96-1.42-.94-2.83.08-4.23.59-3.44 1.52-5.95 3.95-8.79 6.32 1.21-4.43 4.69-7.76 5.32-12.23 3.51-5.1 8.29-8.71 13.58-11.79"/><path fill="#976e9e" d="M191.9 57.22c-2 3.89-7.45 5.82-11.27 7.39-8.54 2.87-15.35 10.2-21.36 16.66-7.54 10.15-13.14 22.21-18.33 33.7a90 90 0 0 0-6.8 18.7c-.75 2.75-1.23 5.54-1.7 8.34-1.18-4.04-1.17-8.06-.77-12.21 2.67-13.96 6.97-27.42 12.72-40.41 2.61-5.48 6.21-9.97 10.03-14.62 1.01-.74 2.13-1.43 2.97-2.35 1.15-1.97 1.7-4.05 3.42-5.66 4.46-1.91 9.24-4.35 14.05-5.75 5.96-.38 11.21-2.93 17.04-3.79"/><path fill="#5d3c73" d="M347.15 57.03c3.95.54 7.96.62 11.71 2.14 7.3 3 12.98 7.96 18.36 13.61 5.86 5.62 10.79 12.14 14.71 19.25.82 2.88 1.83 5.71 2.59 8.6l-1.18.56C388.92 92.91 383.59 84.72 377 78c-6.47-6.83-14.99-12.27-23.76-15.58l-.46 1.45c-2.06-2.13-3.86-4.47-5.63-6.84"/><path fill="#a488a3" d="m389.18 56.9 1.84.02c2.38 2.9 4.8 5.54 6.06 9.16-3.35-2.5-5.56-5.8-7.9-9.18"/><path fill="#6e487c" d="M267.61 57.87c.23 3.78.37 7.51 1.36 11.19-1.54 4.03-4.89 8.41-4.89 12.76 3.55.21 6.69-.79 10.08-1.6 6.37-.16 12.73.19 19.1-.19 3.96.45 7.5.06 11.13-1.63 11.06-5.09 21.25-14.06 31.3-20.13 1.02.93 2.19 1.4 3.52 1.71-2.94 4.72-7.36 6.55-11.91 9.35-6.77 3.88-12.06 8.61-19.44 11.39-3.2.95-6.21 2.05-9.25 3.41-4.31-.19-6.68.67-10.25 2.88-6.72-3.21-14.79-2.01-21.84-.54-3.17.93-6.98 1.22-8.93 4.25-1.26-.2-1.51-1.12-2.24-1.99l-.23.2c-.68.62-1.32 1.28-2 1.9.07-2.67-.07-5.24-1.31-7.66-3.48-7.1-9.08-12.91-14.93-18.11 1.1-.76 2.19-1.52 3.29-2.27 3.67 3.36 7.34 6.71 10.76 10.34 2.23 3.63 3.83 7.53 6.16 11.08 1.74-2.78 2.82-5.8 3.82-8.91 1.33-3.12 2.87-6.11 4.51-9.08 1.6-2.53.76-5.64 2.19-8.35"/><path fill="#533b50" d="M403.28 57.91c3.94 8.37 5.32 17.19 7.35 26.12 2.07 12.68 1.19 25.23 2.28 37.95.77 10 .27 20.04.9 30.02.24 8.1 5.06 16.31 8.94 23.27 6.25 9.61 10.72 20.28 13.44 31.41 2.21 10.83-.66 20.71-4.93 30.58-3.31 7.03-8.61 11.68-14.19 16.82-1.22 1.27-3.32 3.03-3.32 4.9-.01 4.03.62 8.01.4 12.06-1.81 1.18-3.77 2.26-5.39 3.69-1.38 1.68-1.79 4.09-3.1 5.84-1.98 1.76-5.53 2.86-6.22 5.64-.93 3.04-1.62 6.12-2.87 9.06-2.38 5.71-2.84 11.22-7.18 15.86l-.17-2.22.34-.56c1.93-3.05 3.67-6.06 4.19-9.69.79-5.17 1.92-10.02 4.51-14.61 1.18-1.67 2.9-2.97 4.12-4.61 1.32-2.12 2.13-4.44 3.7-6.44 1.7-2.34 3.77-4.37 4.25-7.35.52-3.86.18-7.86.35-11.76 1.5-1.85 2.95-3.74 4.42-5.61 2.52-2.61 5-5.2 7.02-8.22 2.28-3.28 5.26-6.48 6.91-10.09 2.79-6.45 3.29-13.42 2.22-20.32-.19-5.62.98-10.83-2.22-15.82-.92-1.81-2.35-2.25-4.15-2.88-3.3-5.77-5.98-11.89-9.09-17.76-2.69-5.04-4.67-10.27-7.84-15.04-2.68-6.55-6.11-13.07-7.9-19.92-.01-12.79-1-25.38-6.71-37.04l1.18-.56c-.76-2.89-1.77-5.72-2.59-8.6 1.57 2.88 2.73 5.91 4 8.92 1.4 3.37 3.07 6.32 4 9.88 1 3.92 1.52 8.01 1.93 12.03.43 10.22 2.53 20.78 6.94 30.05.5-9.98-.54-20.2-1.61-30.12-.79-6.98-.22-13.98-.9-20.98-.35-8.13-1.42-16.09-4.25-23.75-2.35-5.87-.35-11.88-3.06-17.74 1.22.11 2.44.22 3.66.2.24-.86.45-1.73.64-2.61"/><path fill="#e7cbd8" d="M340.93 59.59c2.7 2 4.71 5.07 6.78 7.69 2.17 3.15 4.96 6.73 5.75 10.52-.74 1.93-2.23 3.67-3.47 5.3-4.17 3.49-7.56 7.71-11.85 11.06-3.32 2.64-6.69 5.22-10.05 7.81-.65.2-1.32.37-1.98.52-4.24-4.43-7.61-9.34-12.92-12.73-2.45-1.93-5.16-3.6-7.43-5.72.63-1.16 1.35-2.24 2.1-3.32 7.38-2.78 12.67-7.51 19.44-11.39 4.55-2.8 8.97-4.63 11.91-9.35.57-.15 1.15-.28 1.72-.39"/><path fill="#d5bbd1" d="M353.24 62.42c8.77 3.31 17.29 8.75 23.76 15.58 6.59 6.72 11.92 14.91 16.34 23.19 5.71 11.66 6.7 24.25 6.71 37.04 1.79 6.85 5.22 13.37 7.9 19.92-1.16-1.31-2.31-2.64-3.57-3.85-1.23 1.38-.29 2.36.04 3.92-1.65-.67-3.27-1.43-4.92-2.1 1.24 2.64 1.14 4.2.45 7.01-2.47-3.69-4.7-7.48-6.55-11.52-2.76-6.13-6.35-11.26-8.29-17.74-1.62-7.15-3.28-14.26-5.81-21.16-6.01-17.09-14.31-35.26-26.52-48.84z"/><path fill="#f7dce5" d="m156.96 67 3.85-.24c-1.72 1.61-2.27 3.69-3.42 5.66-.84.92-1.96 1.61-2.97 2.35-1.39.03-2.67-.11-3.9.69-4.15 2.41-7.97 5.44-11.67 8.47-1.18.56-2.4 1.25-3.68 1.54-.53-.36-1.03-.76-1.5-1.21 7.2-6.57 14.76-12.48 23.29-17.26"/><path fill="#c39db0" d="M271.22 66.58c-.63 4.47-4.11 7.8-5.32 12.23 2.84-2.37 5.35-4.8 8.79-6.32 1.4-.51 2.81-1.53 4.23-.59-2.7 2.65-5.62 4.67-7.66 7.96.96.14 1.93.26 2.9.36-3.39.81-6.53 1.81-10.08 1.6 0-4.35 3.35-8.73 4.89-12.76.75-.82 1.5-1.65 2.25-2.48"/><path fill="#b990bf" d="M255.12 69.8c1.02 2.58 2.06 5.07 3.78 7.27.22-2.39.27-4.75.13-7.14.6 1.8 1.25 3.58 1.88 5.37-1 3.11-2.08 6.13-3.82 8.91-2.33-3.55-3.93-7.45-6.16-11.08 1.48 1.02 2.99 1.98 4.59 2.81-.01-2.05-.16-4.1-.4-6.14"/><path fill="#3d2155" d="M207.97 72.5c10.04-.58 20.01 2.54 28.13 8.41 4.67 3.4 9.41 6.55 13.75 10.34-3.14-.66-6.28-1.1-9.47-1.42-6.5-7.95-17.56-11.45-27.37-12.96-7-1.16-14.05 1.07-19.11 6.02-4.81 4.84-9.05 10.27-12.62 16.08l-.63-1.12c-.59-.1-1.18-.18-1.78-.24 3.2-6.63 6.37-12.79 12.05-17.7 4.65-3.94 10.82-7.37 17.05-7.41"/><path fill="#382a40" d="M154.42 74.77c-3.82 4.65-7.42 9.14-10.03 14.62-5.75 12.99-10.05 26.45-12.72 40.41-2.8 10.21-3.65 20.69-5.92 31.02-1.66 5.89-2.16 11.91-2.9 17.96-1.45 3.27-3.79 6.2-2.8 9.98 1.48 7.3-.24 17.06 2.88 24.05.78-.26 1.55-.54 2.31-.83.58 2.38 1.19 4.76 1.78 7.14-1.92-1.76-3.24-4.11-5.78-4.73-.5.54-1 1.08-1.48 1.64-3.4-9.51-4.74-19.93-3.65-29.98.53-5.38.68-10.98 1.72-16.26.74-4.18 2.52-9.23 1.63-13.44-1.67-3.65-4.3-6.54-5.29-10.58-2.35-9.5-3.88-19.4-2.32-29.15 2.33 1.1 1.39 2.65 1.46 4.72-.18 2.09-.02 3.8.69 5.78 3.54-3.16 3.36-6.99 4.93-11.08.14 1.37.25 2.74.33 4.12-1.02 9.17-.98 19.55 3.32 27.95 1.76-11.45 4.65-22.56 7.84-33.68 1.65-5.77 3.35-11.77 5.78-17.25 1.17-2.7 2.51-5.38 3.53-8.12-1.2.29-2.39.63-3.57.98l-1.43-1.09c1.36-1.68 2.69-3.4 4.12-5.02 3.7-3.03 7.52-6.06 11.67-8.47 1.23-.8 2.51-.66 3.9-.69"/><path fill="#865490" d="M213.01 76.87c9.81 1.51 20.87 5.01 27.37 12.96-7.7-.14-15.13-.74-22.67 1.34-5.9-.2-11.39 1.3-17.1 2.46-2.35.48-4.56 1.34-6.76 2.27-4.73 1.69-9.12 3.93-13.52 6.32.3-1.09.62-2.17.95-3.25 3.57-5.81 7.81-11.24 12.62-16.08a22.08 22.08 0 0 1 19.11-6.02"/><path fill="#73527c" d="M355.95 78.98c3.23 4.87 6.48 10.87 8.78 16.24 1.15 2.51.84 4.94.8 7.59.81-.45 1.61-.93 2.43-1.37.46 1.05.82 2.11 1.18 3.19-4.47 7.61-9.61 14.39-15.92 20.58-4.7 4.58-9.71 10.82-16.29 12.45-1.21-.47-2.37-.96-3.62-1.3-.65 1.51-1.08 3.08-1.47 4.67-.73-2.07-.86-4.16-.82-6.34 1.84-7.23-.49-13.54-3.69-19.91-4.29-8.93-8.95-17.22-16.65-23.67.79-.58 1.63-1.03 2.51-1.35 5.31 3.39 8.68 8.3 12.92 12.73.66-.15 1.33-.32 1.98-.52l.91.32c.36 1.21.38 2.52.87 3.67.42.28.83.56 1.25.84-.59.77-1.13 1.57-1.64 2.39.62 2.8 2.13 5.47 3.2 8.13 1.67 3.82 2.62 7.89 4.24 11.72 2.48-1.89 4.79-3.98 7.24-5.89 8.12-5.79 17.21-13.73 20.71-23.3-1.01-6.4-5.46-12.57-8.79-18.03-.3-.6-.6-1.21-.9-1.81z"/><path fill="#e3ccdb" d="M355.18 80.01c.3.6.6 1.21.9 1.81-1.65 5.35.15 10.37-.65 15.76-.46 3.47-1.45 6.82-2.86 10.01-2.57 5.61-3.85 11.08-8.41 15.56-2.45 1.91-4.76 4-7.24 5.89-1.62-3.83-2.57-7.9-4.24-11.72-1.07-2.66-2.58-5.33-3.2-8.13.51-.82 1.05-1.62 1.64-2.39 8.26-5.09 15.2-11.92 19.98-20.4 1.27-2.18 2.59-4.34 4.08-6.39"/><path fill="#9d7cad" d="M307.86 80.72c-.75 1.08-1.47 2.16-2.1 3.32 2.27 2.12 4.98 3.79 7.43 5.72-.88.32-1.72.77-2.51 1.35-3.63-2.58-7.28-4.65-11.33-6.5l-.74-.48c3.04-1.36 6.05-2.46 9.25-3.41"/><path fill="#c3a3c5" d="M356.08 81.82c3.33 5.46 7.78 11.63 8.79 18.03-3.5 9.57-12.59 17.51-20.71 23.3 4.56-4.48 5.84-9.95 8.41-15.56 1.41-3.19 2.4-6.54 2.86-10.01.8-5.39-1-10.41.65-15.76"/><path fill="#886592" d="m349.99 83.1 1.11 3.3c-4.78 8.48-11.72 15.31-19.98 20.4-.42-.28-.83-.56-1.25-.84-.49-1.15-.51-2.46-.87-3.67l-.91-.32c3.36-2.59 6.73-5.17 10.05-7.81 4.29-3.35 7.68-7.57 11.85-11.06"/><path fill="#917993" d="M133.67 84.26c.47.45.97.85 1.5 1.21 1.28-.29 2.5-.98 3.68-1.54-1.43 1.62-2.76 3.34-4.12 5.02-2.43 1.63-4.76 3.4-7.22 4.98-.03-1.66.07-3.33.21-4.98 1.87-1.71 3.91-3.19 5.95-4.69"/><path fill="#c29cb9" d="m298.61 84.13.74.48c-2.23.22-4.81-.23-6.66 1.13 3.12 3.5 6.6 6.31 10.15 9.31-.58.65-1.14 1.32-1.68 2 2.39 3.15 5.28 5.93 7.86 8.93 3.76 4.02 6.86 8.5 10.17 12.88l-1.08 1.22c-3.16-4.07-6.42-8.06-9.82-11.92-6.96-7.28-12.35-14.8-20.61-20.66l.68-.49c3.57-2.21 5.94-3.07 10.25-2.88"/><path fill="#e5cbda" d="m288.36 87.01-.68.49-1.14.86c5.93 5.97 8.28 13.95 14.07 19.97 1.97.77 5 1.14 7.11.87l.57-1.04c3.4 3.86 6.66 7.85 9.82 11.92 2.51 3.76 5.14 7.37 7.16 11.44-1.14-.76-2.27-1.56-3.43-2.31.86 2.05 1.96 4.01 2.7 6.1-1.42.78-2.83 1.1-3.69 2.61-2.57 3.39-6.7 5.74-8.61 9.54-1.89.57-4 .47-5.96.74.56 2.49 1.28 4.79.84 7.38-1.43-2.45-2.93-4.86-4.16-7.42-.28-.74-.57-1.48-.86-2.21-.87-2.79-1.6-5.58-2.75-8.27-4.99-11.5-10.99-22.48-18.5-32.55-5.7-7.48-13.85-12.99-23.26-14.41 1.95-3.03 5.76-3.32 8.93-4.25 7.05-1.47 15.12-2.67 21.84.54"/><path fill="#faf1f3" d="M299.35 84.61c4.05 1.85 7.7 3.92 11.33 6.5 7.7 6.45 12.36 14.74 16.65 23.67-.07.98-.12 1.97-.16 2.95-.94-1.2-1.45-2.52-2.61-3.46-1.91-.7-4.32-.73-6.02-1.87-6.06-4.97-9.79-12.35-15.7-17.35-3.55-3-7.03-5.81-10.15-9.31 1.85-1.36 4.43-.91 6.66-1.13"/><path fill="#5a2732" d="m255.12 88.93.23-.2c.73.87.98 1.79 2.24 1.99 9.41 1.42 17.56 6.93 23.26 14.41 7.51 10.07 13.51 21.05 18.5 32.55 1.15 2.69 1.88 5.48 2.75 8.27-.4-.5-.81-.99-1.23-1.46-.86.98-1.61 2.06-2.48 3.04-.49-.45-.98-.91-1.45-1.39-2.61-9.06-7.7-17.6-12.25-25.82-4.53-7.56-9.06-15.49-16.72-20.3-7.41-4.63-16.19-7.62-24.93-8.14-6.99-.43-13.94-.49-20.9.42-1.5-.32-2.95-.77-4.43-1.13 7.54-2.08 14.97-1.48 22.67-1.34 3.19.32 6.33.76 9.47 1.42 1.39.22 2.13.8 3.27-.42.68-.62 1.32-1.28 2-1.9"/><path fill="#fef7fa" d="m286.54 88.36 1.14-.86c8.26 5.86 13.65 13.38 20.61 20.66l-.57 1.04c-2.11.27-5.14-.1-7.11-.87-5.79-6.02-8.14-14-14.07-19.97"/><path fill="#5c475f" d="M127.72 88.95c-.14 1.65-.24 3.32-.21 4.98 2.46-1.58 4.79-3.35 7.22-4.98l1.43 1.09c-3.13 3.43-6.33 6.37-8.79 10.32-3.75 5.91-5.92 13.17-8.11 19.8-.08-1.38-.19-2.75-.33-4.12-1.57 4.09-1.39 7.92-4.93 11.08-.71-1.98-.87-3.69-.69-5.78-.07-2.07.87-3.62-1.46-4.72.31-2.99 1.04-5.89 1.92-8.76.07 1.37.16 2.73.27 4.09 1.63-3.18 2.45-6.56 4.04-9.77 2.61-4.93 5.32-9.58 9.64-13.23"/><path fill="#865490" d="M139.73 89.06c-1.02 2.74-2.36 5.42-3.53 8.12-2.43 5.48-4.13 11.48-5.78 17.25-3.19 11.12-6.08 22.23-7.84 33.68-4.3-8.4-4.34-18.78-3.32-27.95 2.19-6.63 4.36-13.89 8.11-19.8 2.46-3.95 5.66-6.89 8.79-10.32 1.18-.35 2.37-.69 3.57-.98"/><path fill="#783556" d="M217.71 91.17c1.48.36 2.93.81 4.43 1.13-.71.22-1.42.45-2.12.7-5.66.35-10.98 2.11-16.57 2.82-3.25-.93-6.34-.53-9.6.08 2.2-.93 4.41-1.79 6.76-2.27 5.71-1.16 11.2-2.66 17.1-2.46"/><path fill="#fdc5ab" d="M222.14 92.3c6.96-.91 13.91-.85 20.9-.42 8.74.52 17.52 3.51 24.93 8.14 7.66 4.81 12.19 12.74 16.72 20.3 4.55 8.22 9.64 16.76 12.25 25.82-12.01-8.06-26.58-11.66-40.92-9.14-4.31.86-8.71 1.86-11.86 5.16-2.81 2.72-3.89 6.85-2.99 10.62.52 1.86 1.98 2.96 3.9 3.04 5.43.44 11.26-1.52 16.74-2.08 9.11-1.01 18.6-1.11 27.63.61 3.99.8 7.94.3 11.93.51.68.72 1.32 1.49 1.91 2.29 1.47 5.37 3.97 10.45 5.9 15.67 2.12 5.45 4.8 9.86 8.62 14.28l.18.88c-1.4.02-2.77.05-4.12-.34-.52-2.03-.42-3.84-2.14-5.32-4.95-4.72-8.19-9.9-14.44-12.56-7.45-3.33-16.32-5.59-24.46-3.94-6.25 1.33-12.34 3.38-16.83 8.16-3.72 3.77-6.41 8.26-7.45 13.49-.95 4.65-2.4 10.37-.48 14.9 1.17-2.05 2.11-4.24 2.94-6.44-.84 5.14-2.71 9.76-1.6 14.83 1.35 7.18 5.14 14.34 10.89 18.95 4.42 3.47 9.18 3.92 14.32 5.58l1.52.82c.99.48 2.01.92 3.05 1.31-4.15 1.33-7.14-.74-10.11 2.2.83.36 1.73.77 2.43 1.35.18 2.14-.47 4.5-.07 6.63 1.53 3.39 4.63 6.34 5.9 10.05 1.03 3.12.24 6.7 1.2 9.78 4.19 4.61 13.13 2.94 15.2-2.97 2.5-.41 5.39 1.64 7.61 2.6-6.83 6.2-14.71 10.26-22.63 14.83-9.75 4.9-20.15 7.42-30.65 10.16-10.04 2.33-20.31 1.25-29.97-2.16-7.49-2.69-14.93-5.97-21.56-10.42-3.08-2.04-6.03-4.33-9.17-6.23-3.88-4.65-8-8.89-10.88-14.29 1.81-.63 2.54.62 4 1.36 2.12-4.38 7.17-.55 10.4-2.49 2.93-3.25 3.86-8.37 5.8-12.29 1.42-2.76.61-5.25.63-8.18 1.22-1.7 3.05-3.05 4.62-4.41 2.91-2.37 6.61-5.66 7.45-9.47l-.81-.86c.37-.85.74-1.69 1.07-2.56 2.26-5.71 1.36-12.84.19-18.74-1.9-8.3-5.55-16.57-10.98-23.17-4.72-5.44-11.71-9.39-18.94-9.98-3.61-.3-6.76.85-10.05 2.15l.01-1.15c4.34-2.26 10.02-3.26 14.87-2.64 5.64.82 10.29 5.78 15.16 8.56-2.95-4.64-8.52-8.72-13.74-10.35-3.69-.77-7.3-.53-11.02-.88-1.54.1-1.77-1.7-2.21-2.8-.51-1.69-.89-3.43-1.29-5.15 7.4-2.1 15.95-.97 23.47-.13 1.93-.02 4.5.8 5.75-1.11 1.14-5.28-2.63-10.82-6.71-13.83-4.84-3.48-10.42-3.05-16.06-2.62l-1.81-.38c.45-2.45 2.56-4.6 3.88-6.66 3.41-4.97 6.22-10.28 9.98-15.03 4.15-5.27 8.09-11.62 13.82-15.18 5.03-3.41 10.91-4.73 16.06-7.96.7-.25 1.41-.48 2.12-.7"/><path fill="#f67f72" d="M220.02 93c-5.15 3.23-11.03 4.55-16.06 7.96-5.73 3.56-9.67 9.91-13.82 15.18-3.76 4.75-6.57 10.06-9.98 15.03-1.32 2.06-3.43 4.21-3.88 6.66l1.81.38c-3.39.23-6.25 1.54-9.24 3.02-2.71-.3-1.17-2.5-.81-4.2 2.86-7.39 5.94-14.66 9.01-21.96 1.26-2.92 2.53-6.06 4.38-8.65 1.76-2.43 4.3-3.8 6.95-5.06 4.85-2.23 9.98-3.95 15.07-5.54 5.59-.71 10.91-2.47 16.57-2.82"/><path fill="#401a30" d="M203.45 95.82c-5.09 1.59-10.22 3.31-15.07 5.54-2.65 1.26-5.19 2.63-6.95 5.06-1.85 2.59-3.12 5.73-4.38 8.65-3.07 7.3-6.15 14.57-9.01 21.96-.36 1.7-1.9 3.9.81 4.2-1.61.95-4.71 1.31-5.15 3.38-1.41 3.91-2.46 8.11-2.52 12.28 1.96.35 3.93.34 5.9.13-1.85.4-3.8.73-5.58 1.36-3.72 7.01-3.5 15.33-6.82 22.71-1.08-.17-1.74-.61-1.99-1.3.1-2.17 1.81-4.49 1.27-6.61-1.74 2.24-2.89 5.08-4.18 7.61l.16-.91c.53-2.95.69-5.9 1.12-8.86 1.91-5.63 4.32-10.9 5.74-16.7 4.14-9.42 6.88-19.29 10.78-28.8 3.66-9.31 6.95-18.89 11.29-27.91.6.06 1.19.14 1.78.24l.63 1.12c-.33 1.08-.65 2.16-.95 3.25 4.4-2.39 8.79-4.63 13.52-6.32 3.26-.61 6.35-1.01 9.6-.08"/><path fill="#e4d1e0" d="M302.84 95.05c5.91 5 9.64 12.38 15.7 17.35 1.7 1.14 4.11 1.17 6.02 1.87 1.16.94 1.67 2.26 2.61 3.46.04-.98.09-1.97.16-2.95 3.2 6.37 5.53 12.68 3.69 19.91-1.18-.47-2-.84-2.62-2.02-2.86-4.75-5.74-9.46-9.21-13.81-3.31-4.38-6.41-8.86-10.17-12.88-2.58-3-5.47-5.78-7.86-8.93.54-.68 1.1-1.35 1.68-2"/><path fill="#c0a3c3" d="M406.29 101.81c.68 7 .11 14 .9 20.98 1.07 9.92 2.11 20.14 1.61 30.12-4.41-9.27-6.51-19.83-6.94-30.05 1.06 1.65 1.83 3.25 3.73 4.03.6-8.33.26-16.73.7-25.08"/><path fill="#d9bcd2" d="M369.14 104.63c1 2.72 2.06 5.41 2.99 8.15-.17 10.24-3.44 19.77-9.09 28.25-3.05 4.38-8.16 7.62-12.46 10.69-2.88 1.87-5.57 4.01-8.44 5.89-.42-.87-.81-1.75-1.16-2.66-.99-4.2-2.38-8.26-3.66-12.37-.54-1.62-.68-3.24-.39-4.92 6.58-1.63 11.59-7.87 16.29-12.45 6.31-6.19 11.45-12.97 15.92-20.58"/><path fill="#70558d" d="M372.13 112.78c2.25 5.87 3.92 11.81 5.15 17.97-.6-.48-1.2-.94-1.81-1.39-.63 3.61-1.01 7.1-2.61 10.46-2.65 5.67-6.4 10.92-9.91 16.1-2.79 4-5.58 8.53-9.19 11.84-2.67 2.45-5.91 3.52-8.74 5.61q-.285 1.365-.42 2.76c.06-4.21-.4-7.82-1.78-11.83.8.44 1.61.83 2.44 1.19 2.3-2.13 3.72-5.05 6.1-7.16 2.98-2.67 5.63-5.49 7.83-8.86-2.9 1.74-5.69 3.5-8.91 4.6.08-.78.18-1.56.3-2.35 4.3-3.07 9.41-6.31 12.46-10.69 5.65-8.48 8.92-18.01 9.09-28.25"/><path fill="#d9c0d0" d="M165.98 118.14c.93 1.37.08 2.92-.28 4.34-2.05 5.79-4.24 11.5-5.81 17.45-1.32 5.13-3.96 8.96-3.09 14.39-1.42 5.8-3.83 11.07-5.74 16.7-.85 2.27-1.69 4.53-2.53 6.8-.26-1.29-.51-2.57-.77-3.86-2.23 3.12-4.31 6.39-6.34 9.64.67.34 1.34.67 2.01 1-2.32 3.07-4.61 6.05-8.35 7.4-2.67.93-5.64 3.31-8.44 1.63-.23-2.02-.26-4.05-.43-6.07-.19-4.99.5-9.64-.14-14.54-.48-4.05-.5-8.12-.32-12.2 2.27-10.33 3.12-20.81 5.92-31.02-.4 4.15-.41 8.17.77 12.21.47-2.8.95-5.59 1.7-8.34.53 2.33 1.11 4.5 1.98 6.72 1.91-2.08 2.82-4.59 4.33-6.91.97-1.1 2.71-1.47 3.94-2.26 1.11-2.06 1.27-4.67 2.04-6.89 2.86-.46 5.81-.39 8.7-.67-2.21-1.39-5.25-1.18-7.24-2.66 3.48-2.23 7.11-.02 10.94-.17 2.44-.8 4.62-2.1 7.15-2.69"/><path fill="#d7bbce" d="M319.19 118.86c3.47 4.35 6.35 9.06 9.21 13.81.62 1.18 1.44 1.55 2.62 2.02-.04 2.18.09 4.27.82 6.34 1.86 5.17 3.55 10.35 4.45 15.78.03 1.26.02 2.52 0 3.78-1.14-.84-2.18-1.82-3.36-2.59-1.88.44-1.73 2.31-2.32 3.84-1.15 3.63-.74 7.58-3.45 10.34-.91 1.06-1.13 2.7-1.64 4-1.48.03-2.97-.09-4.45-.13.38 1.69.86 3.4 1.42 5.04-1.24-.94-2.47-1.9-3.67-2.89-4.51-7.09-8.71-14.77-11.7-22.62.44-2.59-.28-4.89-.84-7.38 1.96-.27 4.07-.17 5.96-.74 1.91-3.8 6.04-6.15 8.61-9.54.86-1.51 2.27-1.83 3.69-2.61-.74-2.09-1.84-4.05-2.7-6.1 1.16.75 2.29 1.55 3.43 2.31-2.02-4.07-4.65-7.68-7.16-11.44z"/><path fill="#a089b5" d="M375.47 129.36c.61.45 1.21.91 1.81 1.39a78 78 0 0 1 1.83 14.69c-.48.57-.95 1.15-1.41 1.75.28 1.02.79 1.97 1.17 2.96-.75.09-1.49.19-2.23.3-.19 1.22-.15 2.5-.41 3.71-.77.48-2.15.65-2.62 1.41.03 1.62 1.1 3.66-.08 4.96-3.38 4.71-6.51 9.3-10.86 13.17-2.39 2.12-4.67 4.84-7.52 6.33-2.63 1.01-5.82 1.65-8.64 1.55-.56-.48-1.1-.99-1.61-1.52q-.27-1.935-.3-3.93.135-1.395.42-2.76c2.83-2.09 6.07-3.16 8.74-5.61 3.61-3.31 6.4-7.84 9.19-11.84 3.51-5.18 7.26-10.43 9.91-16.1 1.6-3.36 1.98-6.85 2.61-10.46"/><path fill="#976e9e" d="M385.11 133.87c1.94 6.48 5.53 11.61 8.29 17.74 1.85 4.04 4.08 7.83 6.55 11.52 4.12 7.71 8.65 15.24 12.69 22.99 2.26 5.98 4.57 11.88 7.85 17.4 3.01 5.03 5.13 10.49 6.66 16.14.41 1.05.6 2.79 1.7 3.34.96-4.22 1.21-8.53 1.63-12.83l.77-.52c1.07 6.9.57 13.87-2.22 20.32-1.65 3.61-4.63 6.81-6.91 10.09.93-2.4 1.98-4.97 2.22-7.55-.11-2.4-1.15-4.81-1.77-7.11-1.4-4.57-1.94-9.07-3.82-13.27-1.22-2.74-2.66-5.34-3.68-8.17-1.87-6.99-4.9-13.46-8.14-19.9-2.34-4.5-5.19-9.51-9.85-11.93-1.57 6.36-1.46 13.14-2.46 19.63-1.32 8.75-2.61 17.59-4.8 26.17-.92 3.47-1.62 6.99-2.41 10.5-1.31 5.82-3.4 11.4-4.75 17.22-1.06 4.57-1.82 9.13-3.57 13.52-.3-.83-.64-1.64-1-2.44.76-4.24 1.77-8.57 1.91-12.87-2.2 4.46-1.78 9.22-4.6 13.59-4.5 6.25-9.22 12.24-15.03 17.34-1.25-1.72-4.39-3.1-3.84-5.45.04-1.57.22-3.15.14-4.71-1.09-.4-2.17-.81-3.26-1.22-.46-2.31-.39-4.74-.74-7.08-2.36-2.16-6.28.13-8.21-2.1 5.66-2.66 11.21-4.66 16.15-8.64 6.31-4.87 9.72-11.72 13.41-18.6 2.77-5.38 2.92-11.3 2.29-17.18-.25-2.33-.68-4.6-1.11-6.9-.37-3.1-.14-4.59 1.48-7.25 3.8-6.22 6.15-13.05 7.82-20.12 1.86-7.51 1.67-15.82 2.26-23.59.47-6.12-.39-12.11-1.65-18.08"/><path fill="#0a0107" d="M296.94 146.14c.47.48.96.94 1.45 1.39.87-.98 1.62-2.06 2.48-3.04.42.47.83.96 1.23 1.46.29.73.58 1.47.86 2.21.58 2.99.52 5.97.32 8.99-.59-.8-1.23-1.57-1.91-2.29-3.99-.21-7.94.29-11.93-.51-9.03-1.72-18.52-1.62-27.63-.61-5.48.56-11.31 2.52-16.74 2.08-1.92-.08-3.38-1.18-3.9-3.04-.9-3.77.18-7.9 2.99-10.62 3.15-3.3 7.55-4.3 11.86-5.16 14.34-2.52 28.91 1.08 40.92 9.14"/><path fill="#3f2245" d="M333.31 136.36c1.25.34 2.41.83 3.62 1.3-.29 1.68-.15 3.3.39 4.92 1.28 4.11 2.67 8.17 3.66 12.37.51 3.16.86 6.29 1.84 9.35 1.38 4.01 1.84 7.62 1.78 11.83q.03 1.995.3 3.93c.22.81.49 1.61.8 2.39 1.04.69 2.25.99 3.44 1.32-1.94.08-3.92.18-5.82.59-2.38 6.59-1.94 13.13-2.73 19.74-1.02-1.97-.71-3.93-.81-6.08.01-4.74-.05-9.47-.42-14.19-.84-9.01-1.5-18.1-3.07-27.02-.9-5.43-2.59-10.61-4.45-15.78.39-1.59.82-3.16 1.47-4.67"/><path fill="#080105" d="M178.09 138.21c5.64-.43 11.22-.86 16.06 2.62 4.08 3.01 7.85 8.55 6.71 13.83-1.25 1.91-3.82 1.09-5.75 1.11-7.52-.84-16.07-1.97-23.47.13-1.52.39-3.02.8-4.56 1.12-1.97.21-3.94.22-5.9-.13.06-4.17 1.11-8.37 2.52-12.28.44-2.07 3.54-2.43 5.15-3.38 2.99-1.48 5.85-2.79 9.24-3.02"/><path fill="#7f68a6" d="M379.11 145.44c1.95 10.28.83 20.86-1.68 30.94-1.53 6.62-5.49 12.08-6.69 18.82-5.15-7.34-12.62-11.32-21.6-11.43-1.19-.33-2.4-.63-3.44-1.32-.31-.78-.58-1.58-.8-2.39.51.53 1.05 1.04 1.61 1.52 2.82.1 6.01-.54 8.64-1.55 2.85-1.49 5.13-4.21 7.52-6.33 4.35-3.87 7.48-8.46 10.86-13.17 1.18-1.3.11-3.34.08-4.96.47-.76 1.85-.93 2.62-1.41.26-1.21.22-2.49.41-3.71.74-.11 1.48-.21 2.23-.3-.38-.99-.89-1.94-1.17-2.96.46-.6.93-1.18 1.41-1.75"/><path fill="#4f2331" d="M302.96 148.16c1.23 2.56 2.73 4.97 4.16 7.42 2.99 7.85 7.19 15.53 11.7 22.62.47 1.17.9 2.36 1.34 3.55-.45.82-.89 1.65-1.34 2.47-1-1.3-2.01-2.59-3.02-3.89.73 2.24 1.48 4.46 2 6.77-3.82-4.42-6.5-8.83-8.62-14.28-1.93-5.22-4.43-10.3-5.9-15.67.2-3.02.26-6-.32-8.99"/><path fill="#9078ab" d="M359.19 149.47c-2.2 3.37-4.85 6.19-7.83 8.86-2.38 2.11-3.8 5.03-6.1 7.16-.83-.36-1.64-.75-2.44-1.19-.98-3.06-1.33-6.19-1.84-9.35.35.91.74 1.79 1.16 2.66 2.87-1.88 5.56-4.02 8.44-5.89-.12.79-.22 1.57-.3 2.35 3.22-1.1 6.01-2.86 8.91-4.6"/><path fill="#eadae5" d="M404.38 154.3c1.26 1.21 2.41 2.54 3.57 3.85 3.17 4.77 5.15 10 7.84 15.04 3.11 5.87 5.79 11.99 9.09 17.76 1.85 6.44 4.33 12.61 5.6 19.22-.42 4.3-.67 8.61-1.63 12.83-1.1-.55-1.29-2.29-1.7-3.34-1.53-5.65-3.65-11.11-6.66-16.14-3.28-5.52-5.59-11.42-7.85-17.4-4.04-7.75-8.57-15.28-12.69-22.99.69-2.81.79-4.37-.45-7.01 1.65.67 3.27 1.43 4.92 2.1-.33-1.56-1.27-2.54-.04-3.92"/><path fill="#ed786c" d="M171.64 155.9c.4 1.72.78 3.46 1.29 5.15.44 1.1.67 2.9 2.21 2.8 3.72.35 7.33.11 11.02.88-3.57-.17-7.46-.5-10.95.4-5.21 1.91-9.95 4.45-12.27 9.8-1.19 2.14-2.2 4.47-3.58 6.49-1.54.37-3.17.02-4.68-.33 3.32-7.38 3.1-15.7 6.82-22.71 1.78-.63 3.73-.96 5.58-1.36 1.54-.32 3.04-.73 4.56-1.12"/><path fill="#c4a5c2" d="M336.29 156.81c1.57 8.92 2.23 18.01 3.07 27.02.22 3.99.04 7.97-.22 11.96-.83 2.64-1.61 5.3-2.52 7.92-3.78-3.32-6.06-8.07-9.46-11.84-2.27-3.42-4.6-6.78-7-10.12-.44-1.19-.87-2.38-1.34-3.55 1.2.99 2.43 1.95 3.67 2.89-.56-1.64-1.04-3.35-1.42-5.04 1.48.04 2.97.16 4.45.13.51-1.3.73-2.94 1.64-4 2.71-2.76 2.3-6.71 3.45-10.34.59-1.53.44-3.4 2.32-3.84 1.18.77 2.22 1.75 3.36 2.59.02-1.26.03-2.52 0-3.78"/><path fill="#a483a2" d="M125.75 160.82c-.18 4.08-.16 8.15.32 12.2.64 4.9-.05 9.55.14 14.54-1.45 4.8-2.53 9.6-2.42 14.66-.55-4.64-1.54-8.79-1.25-13.4.2-3.35.3-6.69.31-10.04.74-6.05 1.24-12.07 2.9-17.96"/><path fill="#a25043" d="M275.21 162.77c-1.4 1.79-5.05 1.62-7.15 2.33-7.04 1.46-11.74 5.69-17.32 9.78 1.08-1.93 2.31-3.72 4.07-5.1 5.68-4.59 12.96-7.78 20.4-7.01"/><path fill="#b55148" d="M175.21 165.13c3.49-.9 7.38-.57 10.95-.4 5.22 1.63 10.79 5.71 13.74 10.35-4.87-2.78-9.52-7.74-15.16-8.56-4.85-.62-10.53.38-14.87 2.64l-.01 1.15c-2.29 1.57-4.66 3-6.92 4.62 2.32-5.35 7.06-7.89 12.27-9.8"/><g fill="#fcaf93"><path d="M262.22 187.56c-1.51 3.1-3.03 5.9-3.39 9.39-.65 5.65.46 11.62 2.25 16.99 1.57 4.81 5.29 8.77 9.37 11.62 6.06 4.28 14.75 4.38 21.32 1.22 4.08-2.06 7.76-4.4 9.48-8.86 1.34.06 1.55-.23 2.22 1.12-1.64 5.81-7.79 9.88-12.81 12.63-5.05 2.84-10.4 3.18-16.05 3.62-5.14-1.66-9.9-2.11-14.32-5.58-5.75-4.61-9.54-11.77-10.89-18.95-1.11-5.07.76-9.69 1.6-14.83.28-.75.56-1.49.84-2.24.8 1.04 1.66 2.01 2.66 2.87 2.22-3.51 3.31-7.71 7.72-9"/><path d="M276.83 178.15c-2.62 1.18-5.59 2.09-7.88 3.78-2.35 1.75-4.43 3.81-6.73 5.63-4.41 1.29-5.5 5.49-7.72 9-1-.86-1.86-1.83-2.66-2.87 2.78-6.53 7.66-11.79 14.43-14.22 3.13-1.06 7.33-2.63 10.56-1.32m-7.19 19.97c1.27 5.86.82 12.12 5.71 16.51 3.11 2.16 8.05 2 11.65 1.53 4.56-.71 6.86-3.88 9.33-7.4 2.49 2.21 3.29 3.74 3.99 7.02-1.31 2.55-2.36 5.2-5.04 6.59-5.93 3.05-12.63 4.8-19.17 2.64-5.63-1.99-10.99-5.44-12.64-11.54-1.08-4.17-2.01-8.7-1.85-13.02 2.04-1.12 5.78-3.2 8.02-2.33"/><path d="M299.25 187.92c2.64 1.79 4 3.85 4.93 6.89 2.33 7.83 1.94 16.53-.71 24.23-.67-1.35-.88-1.06-2.22-1.12-.19-.79-.5-1.51-.93-2.14-.7-3.28-1.5-4.81-3.99-7.02.21-3.09.28-6.31 1.01-9.33 1.15-.35 2.3-.71 3.45-1.06.85-3.24-1.05-7.17-1.54-10.45"/><path d="M297.28 169.76c6.25 2.66 9.49 7.84 14.44 12.56 1.72 1.48 1.62 3.29 2.14 5.32 1.35.39 2.72.36 4.12.34l-.18-.88c-.52-2.31-1.27-4.53-2-6.77 1.01 1.3 2.02 2.59 3.02 3.89 1.53 3.09 3.76 4.99 1.72 8.48-2.12 2.32-4.86 4.84-5.91 7.86-1.24 3.48-2.08 7.02-3.69 10.36-1.39 3.16-3.43 5.89-5.08 8.9-1.7 3.23-.77 7.04-3.5 9.53-6.71 6.97-17.14 7.96-26.23 6.76l-1.52-.82c5.65-.44 11-.78 16.05-3.62 5.02-2.75 11.17-6.82 12.81-12.63 2.65-7.7 3.04-16.4.71-24.23-.93-3.04-2.29-5.1-4.93-6.89.49 3.28 2.39 7.21 1.54 10.45-1.15.35-2.3.71-3.45 1.06-.73 3.02-.8 6.24-1.01 9.33-2.47 3.52-4.77 6.69-9.33 7.4-3.6.47-8.54.63-11.65-1.53-4.89-4.39-4.44-10.65-5.71-16.51-2.24-.87-5.98 1.21-8.02 2.33-.16 4.32.77 8.85 1.85 13.02 1.65 6.1 7.01 9.55 12.64 11.54 6.54 2.16 13.24.41 19.17-2.64 2.68-1.39 3.73-4.04 5.04-6.59.43.63.74 1.35.93 2.14-1.72 4.46-5.4 6.8-9.48 8.86-6.57 3.16-15.26 3.06-21.32-1.22-4.08-2.85-7.8-6.81-9.37-11.62-1.79-5.37-2.9-11.34-2.25-16.99.36-3.49 1.88-6.29 3.39-9.39 2.3-1.82 4.38-3.88 6.73-5.63 2.29-1.69 5.26-2.6 7.88-3.78-3.23-1.31-7.43.26-10.56 1.32-6.77 2.43-11.65 7.69-14.43 14.22-.28.75-.56 1.49-.84 2.24-.83 2.2-1.77 4.39-2.94 6.44-1.92-4.53-.47-10.25.48-14.9 1.04-5.23 3.73-9.72 7.45-13.49 4.49-4.78 10.58-6.83 16.83-8.16 8.14-1.65 17.01.61 24.46 3.94"/></g><g class="eye"><path fill="#fefdfd" d="M262.22 187.56c-1.51 3.1-3.03 5.9-3.39 9.39-.65 5.65.46 11.62 2.25 16.99 1.57 4.81 5.29 8.77 9.37 11.62 6.06 4.28 14.75 4.38 21.32 1.22 4.08-2.06 7.76-4.4 9.48-8.86 1.34.06 1.55-.23 2.22 1.12-1.64 5.81-7.79 9.88-12.81 12.63-5.05 2.84-10.4 3.18-16.05 3.62-5.14-1.66-9.9-2.11-14.32-5.58-5.75-4.61-9.54-11.77-10.89-18.95-1.11-5.07.76-9.69 1.6-14.83.28-.75.56-1.49.84-2.24.8 1.04 1.66 2.01 2.66 2.87 2.22-3.51 3.31-7.71 7.72-9"/><path fill="#9d9cb4" d="M276.83 178.15c-2.62 1.18-5.59 2.09-7.88 3.78-2.35 1.75-4.43 3.81-6.73 5.63-4.41 1.29-5.5 5.49-7.72 9-1-.86-1.86-1.83-2.66-2.87 2.78-6.53 7.66-11.79 14.43-14.22 3.13-1.06 7.33-2.63 10.56-1.32"/><path fill="#a0453d" d="M269.64 198.12c1.27 5.86.82 12.12 5.71 16.51 3.11 2.16 8.05 2 11.65 1.53 4.56-.71 6.86-3.88 9.33-7.4 2.49 2.21 3.29 3.74 3.99 7.02-1.31 2.55-2.36 5.2-5.04 6.59-5.93 3.05-12.63 4.8-19.17 2.64-5.63-1.99-10.99-5.44-12.64-11.54-1.08-4.17-2.01-8.7-1.85-13.02 2.04-1.12 5.78-3.2 8.02-2.33"/><path fill="#682e33" d="M299.25 187.92c2.64 1.79 4 3.85 4.93 6.89 2.33 7.83 1.94 16.53-.71 24.23-.67-1.35-.88-1.06-2.22-1.12-.19-.79-.5-1.51-.93-2.14-.7-3.28-1.5-4.81-3.99-7.02.21-3.09.28-6.31 1.01-9.33 1.15-.35 2.3-.71 3.45-1.06.85-3.24-1.05-7.17-1.54-10.45"/><path fill="#0b0106" d="M297.28 169.76c6.25 2.66 9.49 7.84 14.44 12.56 1.72 1.48 1.62 3.29 2.14 5.32 1.35.39 2.72.36 4.12.34l-.18-.88c-.52-2.31-1.27-4.53-2-6.77 1.01 1.3 2.02 2.59 3.02 3.89 1.53 3.09 3.76 4.99 1.72 8.48-2.12 2.32-4.86 4.84-5.91 7.86-1.24 3.48-2.08 7.02-3.69 10.36-1.39 3.16-3.43 5.89-5.08 8.9-1.7 3.23-.77 7.04-3.5 9.53-6.71 6.97-17.14 7.96-26.23 6.76l-1.52-.82c5.65-.44 11-.78 16.05-3.62 5.02-2.75 11.17-6.82 12.81-12.63 2.65-7.7 3.04-16.4.71-24.23-.93-3.04-2.29-5.1-4.93-6.89.49 3.28 2.39 7.21 1.54 10.45-1.15.35-2.3.71-3.45 1.06-.73 3.02-.8 6.24-1.01 9.33-2.47 3.52-4.77 6.69-9.33 7.4-3.6.47-8.54.63-11.65-1.53-4.89-4.39-4.44-10.65-5.71-16.51-2.24-.87-5.98 1.21-8.02 2.33-.16 4.32.77 8.85 1.85 13.02 1.65 6.1 7.01 9.55 12.64 11.54 6.54 2.16 13.24.41 19.17-2.64 2.68-1.39 3.73-4.04 5.04-6.59.43.63.74 1.35.93 2.14-1.72 4.46-5.4 6.8-9.48 8.86-6.57 3.16-15.26 3.06-21.32-1.22-4.08-2.85-7.8-6.81-9.37-11.62-1.79-5.37-2.9-11.34-2.25-16.99.36-3.49 1.88-6.29 3.39-9.39 2.3-1.82 4.38-3.88 6.73-5.63 2.29-1.69 5.26-2.6 7.88-3.78-3.23-1.31-7.43.26-10.56 1.32-6.77 2.43-11.65 7.69-14.43 14.22-.28.75-.56 1.49-.84 2.24-.83 2.2-1.77 4.39-2.94 6.44-1.92-4.53-.47-10.25.48-14.9 1.04-5.23 3.73-9.72 7.45-13.49 4.49-4.78 10.58-6.83 16.83-8.16 8.14-1.65 17.01.61 24.46 3.94"/></g><g fill="#fcaf93"><path d="M187.23 180.68c-2.37.51-5.19.87-7.07 2.53-2.14 1.8-4.08 3.86-5.91 5.98-3.39 3.67-2.77 8.35-5.09 13.15-.15-1.39-.32-2.77-.51-4.15-.61.61-1.2 1.23-1.78 1.86.15-3.53.14-7.16 1.8-10.36 1.91-3.8 5.1-7.28 9.13-8.84 2.87-1.12 6.45-.6 9.43-.17"/><path d="M187.23 180.68c1.08.38 3.23.18 3.4 1.63-7.47.45-11.7 6.6-14.64 12.77-.05-1.01-.11-2.02-.16-3.03-1.6 2.91-1.65 5.93-2.77 8.95-.69 1.38-2.48 2.24-3.74 3.05l-.16-1.71c2.32-4.8 1.7-9.48 5.09-13.15 1.83-2.12 3.77-4.18 5.91-5.98 1.88-1.66 4.7-2.02 7.07-2.53m-2.63 17.43c.22 2.17.29 4.39.41 6.58-.89-.05-1.77-.06-2.65-.02-1.56 1.15-2.64 3.05-3.76 4.61-.48-2.1-1.5-4.67-1.08-6.82 1.44-2.38 4.44-3.76 7.08-4.35"/><path d="M182.36 204.67c.88-.04 1.76-.03 2.65.02.59 2.38 1.28 4.73 1.99 7.07-1.37.61-3.57 1.08-4.37 2.44-.06.97-.05 1.94.01 2.92-1.98-2.38-3.26-4.84-4.04-7.84 1.12-1.56 2.2-3.46 3.76-4.61"/><path d="M209.05 210.98c.26 3.02.48 6.05.59 9.07-.33.87-.7 1.71-1.07 2.56l-.85.05c-4.4-.47-7.18 3.23-11.74 2.8-5.57-.25-9.91-4.33-13.34-8.34-.06-.98-.07-1.95-.01-2.92.8-1.36 3-1.83 4.37-2.44 3.15 3.47 6.44 6.29 11.46 5.69 4.82-.47 7.18-3.56 10.59-6.47"/><path d="M175.83 192.05c.05 1.01.11 2.02.16 3.03-.83 8.83.19 18.8 6.04 25.9 3.58 4.53 7.88 8.06 13.97 7.9 5.09.18 8.66-2.44 11.72-6.22l.85-.05.81.86c-.84 3.81-4.54 7.1-7.45 9.47-2.71.63-5.44 1.17-8.17 1.74-6.55 1.05-12.23-2.32-16.9-6.54-7.37-7.5-10.44-17.71-9.99-28.09.58-.63 1.17-1.25 1.78-1.86.19 1.38.36 2.76.51 4.15l.16 1.71c1.26-.81 3.05-1.67 3.74-3.05 1.12-3.02 1.17-6.04 2.77-8.95"/><path d="M179.91 168.16c7.23.59 14.22 4.54 18.94 9.98 5.43 6.6 9.08 14.87 10.98 23.17 1.17 5.9 2.07 13.03-.19 18.74-.11-3.02-.33-6.05-.59-9.07-3.41 2.91-5.77 6-10.59 6.47-5.02.6-8.31-2.22-11.46-5.69-.71-2.34-1.4-4.69-1.99-7.07-.12-2.19-.19-4.41-.41-6.58-2.64.59-5.64 1.97-7.08 4.35-.42 2.15.6 4.72 1.08 6.82.78 3 2.06 5.46 4.04 7.84 3.43 4.01 7.77 8.09 13.34 8.34 4.56.43 7.34-3.27 11.74-2.8-3.06 3.78-6.63 6.4-11.72 6.22-6.09.16-10.39-3.37-13.97-7.9-5.85-7.1-6.87-17.07-6.04-25.9 2.94-6.17 7.17-12.32 14.64-12.77-.17-1.45-2.32-1.25-3.4-1.63-2.98-.43-6.56-.95-9.43.17-4.03 1.56-7.22 5.04-9.13 8.84-1.66 3.2-1.65 6.83-1.8 10.36-.45 10.38 2.62 20.59 9.99 28.09 4.67 4.22 10.35 7.59 16.9 6.54l.96 1.14c-6.26 1.17-14.21 2.7-19.25-2.3-4.23-4.31-6.8-10.47-9.62-15.76-2.79-5.94-5.24-11.91-7.61-18.03-.76-2.17-2.48-2.83-4.29-3.97l-1.32-1.06c-1.53-2.15-3.67-4.48-4.28-7.07-.29-2.23.84-4.71 1.43-6.84 1.29-2.53 2.44-5.37 4.18-7.61.54 2.12-1.17 4.44-1.27 6.61.25.69.91 1.13 1.99 1.3 1.51.35 3.14.7 4.68.33 1.38-2.02 2.39-4.35 3.58-6.49 2.26-1.62 4.63-3.05 6.92-4.62 3.29-1.3 6.44-2.45 10.05-2.15"/></g><g class="eye"><path fill="#a09bb2" d="M187.23 180.68c-2.37.51-5.19.87-7.07 2.53-2.14 1.8-4.08 3.86-5.91 5.98-3.39 3.67-2.77 8.35-5.09 13.15-.15-1.39-.32-2.77-.51-4.15-.61.61-1.2 1.23-1.78 1.86.15-3.53.14-7.16 1.8-10.36 1.91-3.8 5.1-7.28 9.13-8.84 2.87-1.12 6.45-.6 9.43-.17"/><path fill="#cac2d9" d="M187.23 180.68c1.08.38 3.23.18 3.4 1.63-7.47.45-11.7 6.6-14.64 12.77-.05-1.01-.11-2.02-.16-3.03-1.6 2.91-1.65 5.93-2.77 8.95-.69 1.38-2.48 2.24-3.74 3.05l-.16-1.71c2.32-4.8 1.7-9.48 5.09-13.15 1.83-2.12 3.77-4.18 5.91-5.98 1.88-1.66 4.7-2.02 7.07-2.53"/><path fill="#83131d" d="M184.6 198.11c.22 2.17.29 4.39.41 6.58-.89-.05-1.77-.06-2.65-.02-1.56 1.15-2.64 3.05-3.76 4.61-.48-2.1-1.5-4.67-1.08-6.82 1.44-2.38 4.44-3.76 7.08-4.35"/><path fill="#a33431" d="M182.36 204.67c.88-.04 1.76-.03 2.65.02.59 2.38 1.28 4.73 1.99 7.07-1.37.61-3.57 1.08-4.37 2.44-.06.97-.05 1.94.01 2.92-1.98-2.38-3.26-4.84-4.04-7.84 1.12-1.56 2.2-3.46 3.76-4.61"/><path fill="#b95546" d="M209.05 210.98c.26 3.02.48 6.05.59 9.07-.33.87-.7 1.71-1.07 2.56l-.85.05c-4.4-.47-7.18 3.23-11.74 2.8-5.57-.25-9.91-4.33-13.34-8.34-.06-.98-.07-1.95-.01-2.92.8-1.36 3-1.83 4.37-2.44 3.15 3.47 6.44 6.29 11.46 5.69 4.82-.47 7.18-3.56 10.59-6.47"/><path fill="#fefcfe" d="M175.83 192.05c.05 1.01.11 2.02.16 3.03-.83 8.83.19 18.8 6.04 25.9 3.58 4.53 7.88 8.06 13.97 7.9 5.09.18 8.66-2.44 11.72-6.22l.85-.05.81.86c-.84 3.81-4.54 7.1-7.45 9.47-2.71.63-5.44 1.17-8.17 1.74-6.55 1.05-12.23-2.32-16.9-6.54-7.37-7.5-10.44-17.71-9.99-28.09.58-.63 1.17-1.25 1.78-1.86.19 1.38.36 2.76.51 4.15l.16 1.71c1.26-.81 3.05-1.67 3.74-3.05 1.12-3.02 1.17-6.04 2.77-8.95"/><path fill="#090105" d="M179.91 168.16c7.23.59 14.22 4.54 18.94 9.98 5.43 6.6 9.08 14.87 10.98 23.17 1.17 5.9 2.07 13.03-.19 18.74-.11-3.02-.33-6.05-.59-9.07-3.41 2.91-5.77 6-10.59 6.47-5.02.6-8.31-2.22-11.46-5.69-.71-2.34-1.4-4.69-1.99-7.07-.12-2.19-.19-4.41-.41-6.58-2.64.59-5.64 1.97-7.08 4.35-.42 2.15.6 4.72 1.08 6.82.78 3 2.06 5.46 4.04 7.84 3.43 4.01 7.77 8.09 13.34 8.34 4.56.43 7.34-3.27 11.74-2.8-3.06 3.78-6.63 6.4-11.72 6.22-6.09.16-10.39-3.37-13.97-7.9-5.85-7.1-6.87-17.07-6.04-25.9 2.94-6.17 7.17-12.32 14.64-12.77-.17-1.45-2.32-1.25-3.4-1.63-2.98-.43-6.56-.95-9.43.17-4.03 1.56-7.22 5.04-9.13 8.84-1.66 3.2-1.65 6.83-1.8 10.36-.45 10.38 2.62 20.59 9.99 28.09 4.67 4.22 10.35 7.59 16.9 6.54l.96 1.14c-6.26 1.17-14.21 2.7-19.25-2.3-4.23-4.31-6.8-10.47-9.62-15.76-2.79-5.94-5.24-11.91-7.61-18.03-.76-2.17-2.48-2.83-4.29-3.97l-1.32-1.06c-1.53-2.15-3.67-4.48-4.28-7.07-.29-2.23.84-4.71 1.43-6.84 1.29-2.53 2.44-5.37 4.18-7.61.54 2.12-1.17 4.44-1.27 6.61.25.69.91 1.13 1.99 1.3 1.51.35 3.14.7 4.68.33 1.38-2.02 2.39-4.35 3.58-6.49 2.26-1.62 4.63-3.05 6.92-4.62 3.29-1.3 6.44-2.45 10.05-2.15"/></g><path fill="#c7aac7" d="M151.06 171.02c-.43 2.96-.59 5.91-1.12 8.86-3.23 4.37-3.98 9.16-5.96 14.12-2.97 7.82-4.61 15.69-5.03 24.03-.97 4.44-1.23 9.23-2.91 13.45-5.23-2.91-6.01-7.67-9.02-12.36-.59-2.38-1.2-4.76-1.78-7.14-.58-3.24-1.08-6.49-1.45-9.76-.11-5.06.97-9.86 2.42-14.66.17 2.02.2 4.05.43 6.07 2.8 1.68 5.77-.7 8.44-1.63 3.74-1.35 6.03-4.33 8.35-7.4-.67-.33-1.34-.66-2.01-1 2.03-3.25 4.11-6.52 6.34-9.64.26 1.29.51 2.57.77 3.86.84-2.27 1.68-4.53 2.53-6.8"/><path fill="#e5c3d1" d="M397.08 172.13c4.66 2.42 7.51 7.43 9.85 11.93 3.24 6.44 6.27 12.91 8.14 19.9.64 3.52.69 6.56.08 10.09-1.57 7.12-2.83 14.38-4.98 21.35-.82-.54-1.62-1.1-2.4-1.69 2.46-4.02 1.81-8.54 3.97-12.73-2.25-.55-4.12.09-6.2.95 1.07.64 2.17 1.22 3.3 1.76-3.22 1.44-5.66.14-8.84-.48-1.56.66-1.99 2.52-2 4.05 1.77.84 3.66 1.41 5.43 2.26-.06.68-.16 1.37-.3 2.05-1.8-.85-3.51-1.86-5.33-2.69-.75 1.26-1.25 2.62-1.86 3.94-.81-.14-1.59-.39-2.37-.67.74-1.69 1.69-3.26 2.28-5.02-.27-.56-.6-1.07-.98-1.52-1.41-.02-2.82.13-4.23.15.22-1.52.56-3.08 1.19-4.49 1.71-.27 3.46-.3 5.18-.45-2.35-1.12-4.74-2.02-7.19-2.89 2.19-8.58 3.48-17.42 4.8-26.17 1-6.49.89-13.27 2.46-19.63"/><path fill="#58415e" d="M122.85 178.78c-.01 3.35-.11 6.69-.31 10.04-.29 4.61.7 8.76 1.25 13.4.37 3.27.87 6.52 1.45 9.76-.76.29-1.53.57-2.31.83-3.12-6.99-1.4-16.75-2.88-24.05-.99-3.78 1.35-6.71 2.8-9.98"/><path fill="#5a325c" d="m149.94 179.88-.16.91c-.59 2.13-1.72 4.61-1.43 6.84.61 2.59 2.75 4.92 4.28 7.07-.99 6.09 1.57 11.92 1.08 18.15-1.11-.03-1.75-.5-1.92-1.42-1.32-4.62-1.59-9.13-3.92-13.5-1.21-.19-1.63 2.03-2.13 2.84-2 5.3-3 10.97-4.6 16.4a52 52 0 0 0-.37-3.05c-.68 1.27-1.3 2.57-1.82 3.91.42-8.34 2.06-16.21 5.03-24.03 1.98-4.96 2.73-9.75 5.96-14.12"/><path fill="#7d3b4e" d="M320.16 181.75c2.4 3.34 4.73 6.7 7 10.12.94 3.72 1.91 7.41 3.07 11.08-.84 4.33-1.75 8.56-1.55 13.01-.5-1.74-.99-3.48-1.5-5.22-1.08-4.1-2.42-8.14-3.66-12.2-.67-2.14-1.5-4.12-2.98-5.84 2.04-3.49-.19-5.39-1.72-8.48.45-.82.89-1.65 1.34-2.47"/><path fill="#601928" d="M339.36 183.83c.37 4.72.43 9.45.42 14.19.1 2.15-.21 4.11.81 6.08.79-6.61.35-13.15 2.73-19.74 1.9-.41 3.88-.51 5.82-.59 8.98.11 16.45 4.09 21.6 11.43.76 3.08 1.21 6.02 3.12 8.65l1.34-.94c.43 2.3.86 4.57 1.11 6.9q-.255 1.575-.57 3.15c-3.26-3.81-4.38-8.31-5.33-13.11-.84-4.58-3.44-8.68-7.85-10.52-5.12-2.22-10.99-3.49-16.53-4-1.01.93-1.05 2.07-1.23 3.34-.56 6.07-.78 12.21-.44 18.29-.49 4.46-2.54 8.57-3.41 12.99-3.21 6.12-7.27 11.66-9.99 18.07l-1.79-.29c.23-2.33 1.05-4.44 1.9-6.6 5.97-10.87 8.24-23.02 8.07-35.34.26-3.99.44-7.97.22-11.96"/><path fill="#94161e" d="M346.03 185.33c5.54.51 11.41 1.78 16.53 4 4.41 1.84 7.01 5.94 7.85 10.52.95 4.8 2.07 9.3 5.33 13.11q.315-1.575.57-3.15c.63 5.88.48 11.8-2.29 17.18-3.69 6.88-7.1 13.73-13.41 18.6-4.94 3.98-10.49 5.98-16.15 8.64-1.12.29-2.24.6-3.38.84-6.47.34-13.47.56-19.75-1.24-.43-.52-.88-1.03-1.36-1.51-2.47 2.57-4.12 5.77-5.96 8.8-3.9 3.88-6.71 8.39-11.06 11.82-4.72 3.82-9.9 8.16-15.58 10.37-1.6.64-3.19 1.28-4.76 1.97.24-1.01.56-2 .81-3.01-1.55-.26-3.14-.33-4.71-.38 7.92-4.57 15.8-8.63 22.63-14.83 7.88-6.07 12.97-14.17 20-20.95 3.61 1.58 6.6 3.52 10.65 3.8 4.91.36 10.53.28 15.08-1.82 7.53-3.39 14.26-8.22 18.76-15.25 6.39-10.84 6.46-26.22-1.17-36.49-5.05-6.33-12.24-7.35-19.86-7.68.18-1.27.22-2.41 1.23-3.34"/><path fill="#fcaf93" d="M344.8 188.67c7.62.33 14.81 1.35 19.86 7.68 7.63 10.27 7.56 25.65 1.17 36.49-4.5 7.03-11.23 11.86-18.76 15.25-4.55 2.1-10.17 2.18-15.08 1.82-4.05-.28-7.04-2.22-10.65-3.8 1.58-1.68 3.33-2.7 3.56-5.21.32-3.4.65-7.92-1.21-10.86-.83-.11-1.55.02-2.16.37-2.71 4.09-4.38 8.79-7.41 12.74-1.74 2.45-4.17 3.97-6.2 6.08.2.71.46 1.4.67 2.11-3.01.58-5.7 1.81-8.58 2.74-3.51-1.35-6.6-2.05-10.31-2.66-1.54-1.83-2.37-4.33-4.05-6.04-1.54-1.41-3.97-1.67-3.66-4.17 1.41-1.57 3.32-2.88 4.92-4.22-2.6-.08-5.15.06-7.73.43-1.04-.39-2.06-.83-3.05-1.31 9.09 1.2 19.52.21 26.23-6.76 2.73-2.49 1.8-6.3 3.5-9.53 1.65-3.01 3.69-5.74 5.08-8.9 1.61-3.34 2.45-6.88 3.69-10.36 1.05-3.02 3.79-5.54 5.91-7.86 1.48 1.72 2.31 3.7 2.98 5.84 1.24 4.06 2.58 8.1 3.66 12.2-.11 6.72.05 13.42.05 20.13.61-.93 1.19-1.88 1.77-2.83a79 79 0 0 1 2.83-3.78c-.17 2.3-.42 4.59-.76 6.87-.85 2.16-1.67 4.27-1.9 6.6l1.79.29c4.41.56 8.79.12 13.13-.75 3.14-.53 5.97-.57 8.64-2.53 6-4.27 9.06-11.75 10.14-18.81.58-4.1.5-8.13-2.49-11.31-2.34-2.61-5.71-2.85-8.93-2.12-2.7.69-5.03 2.66-7.09 4.46-.34-6.08-.12-12.22.44-18.29"/><path fill="#7b6376" d="M424.88 190.95c1.8.63 3.23 1.07 4.15 2.88 3.2 4.99 2.03 10.2 2.22 15.82l-.77.52c-1.27-6.61-3.75-12.78-5.6-19.22"/><path fill="#b77fa0" d="M327.16 191.87c3.4 3.77 5.68 8.52 9.46 11.84.91-2.62 1.69-5.28 2.52-7.92.17 12.32-2.1 24.47-8.07 35.34.34-2.28.59-4.57.76-6.87a79 79 0 0 0-2.83 3.78c.18-6.06 1.2-11.98 2.08-17.96.46-2.52-.01-4.76-.85-7.13-1.16-3.67-2.13-7.36-3.07-11.08"/><path fill="#7d5685" d="m152.63 194.7 1.32 1.06c-.47 6.02 2.02 10.8 3.85 16.31 3.14 10.32 4.07 21.35 5.18 32.04-1.61-3.22-2.55-6.66-3.78-10.03-.46 6.03-.47 12.12-.32 18.17-1.11-5.72-1.28-11.49-2.06-17.23-.74-5.9-3.27-11.51-6.12-16.68-1.76-3.24-2.82-6.73-4.32-10.07-3.34 8.28-4.21 17.88-4.52 26.73-.38 8.46 1.21 16.47 1.97 25.15-3.03-8.49-2.42-16.73-3.29-25.54-.53-5.87-.39-11.62.6-17.44 1.6-5.43 2.6-11.1 4.6-16.4.5-.81.92-3.03 2.13-2.84 2.33 4.37 2.6 8.88 3.92 13.5.17.92.81 1.39 1.92 1.42.49-6.23-2.07-12.06-1.08-18.15"/><path fill="#a83c42" d="M153.95 195.76c1.81 1.14 3.53 1.8 4.29 3.97 2.37 6.12 4.82 12.09 7.61 18.03l-.77 1.39c-1.56-2.81-2.98-5.76-4.82-8.41-.48-.71-1.19-1.2-2.16-1.47-.12.93-.22 1.86-.3 2.8-1.83-5.51-4.32-10.29-3.85-16.31"/><path fill="#dc2f22" d="M351.45 202.5c3.22-.73 6.59-.49 8.93 2.12 2.99 3.18 3.07 7.21 2.49 11.31-1.08 7.06-4.14 14.54-10.14 18.81-2.67 1.96-5.5 2-8.64 2.53 3.94-2.14 7.8-2.96 10.66-6.53 4.77-5.52 7.86-14.22 5.91-21.41-2.89-.32-5.85-.55-8.76-.72-.12 2.79 3.57 4.1 5.22 6.1-3.58-.57-8.25-2.8-11.73-1.42-1.85 1.88-3.15 4.38-4.44 6.66.87-4.42 2.92-8.53 3.41-12.99 2.06-1.8 4.39-3.77 7.09-4.46"/><path fill="#b0575b" d="M330.23 202.95c.84 2.37 1.31 4.61.85 7.13-.88 5.98-1.9 11.9-2.08 17.96-.58.95-1.16 1.9-1.77 2.83 0-6.71-.16-13.41-.05-20.13.51 1.74 1 3.48 1.5 5.22-.2-4.45.71-8.68 1.55-13.01"/><path fill="#cca3cb" d="M415.07 203.96c1.02 2.83 2.46 5.43 3.68 8.17 1.88 4.2 2.42 8.7 3.82 13.27.62 2.3 1.66 4.71 1.77 7.11-.24 2.58-1.29 5.15-2.22 7.55-2.02 3.02-4.5 5.61-7.02 8.22-.94.16-1.89.29-2.84.39 1.44-6.2 3.09-12.28 3.6-18.66.41-6.03 1.18-12.11 1.05-18.16-.61.71-1.19 1.45-1.76 2.2.61-3.53.56-6.57-.08-10.09"/><path fill="#956a9d" d="M146.38 208.27c1.5 3.34 2.56 6.83 4.32 10.07 2.85 5.17 5.38 10.78 6.12 16.68.78 5.74.95 11.51 2.06 17.23.72 4 1.6 8.03 2.9 11.9 1.74 4.84 3.81 9.57 5.8 14.31 1.84 4.51 5.13 7.88 6.55 12.48-4.67-.87-8.32-3.3-12.2-5.86-8.83-5.57-15.31-14.93-18.1-24.93-.76-8.68-2.35-16.69-1.97-25.15.31-8.85 1.18-18.45 4.52-26.73"/><path fill="#ee4e42" d="M351.9 208.61c2.91.17 5.87.4 8.76.72 1.95 7.19-1.14 15.89-5.91 21.41-2.86 3.57-6.72 4.39-10.66 6.53-4.34.87-8.72 1.31-13.13.75 2.72-6.41 6.78-11.95 9.99-18.07 1.29-2.28 2.59-4.78 4.44-6.66 3.48-1.38 8.15.85 11.73 1.42-1.65-2-5.34-3.31-5.22-6.1"/><path fill="#9c151b" d="M158.1 209.27c.97.27 1.68.76 2.16 1.47 1.84 2.65 3.26 5.6 4.82 8.41 3.36 13.52 3.67 27.61 11.4 39.8 2.88 5.4 7 9.64 10.88 14.29-4.37.2-6.36-4.76-9.3-7.28-1.04.64-2.03 1.39-3.02 2.11-2.02-2.45-3.8-5.05-5.22-7.89-2.38-4.66-3.18-9.78-6-14.26-.29-.6-.57-1.2-.84-1.81-1.11-10.69-2.04-21.72-5.18-32.04.08-.94.18-1.87.3-2.8"/><path fill="#8567a1" d="M416.91 211.85c.13 6.05-.64 12.13-1.05 18.16-.51 6.38-2.16 12.46-3.6 18.66.95-.1 1.9-.23 2.84-.39-1.47 1.87-2.92 3.76-4.42 5.61-3.04 3.26-4.36 7.26-6.66 10.97.68-3.52.47-6.12-2.03-8.87-4.19 2.35-5.78 6.12-8.37 9.87-.06-.8-.14-1.6-.23-2.4-1.23-.37-2.53-.31-3.82-.33 3.7-3.06 7.81-5.96 10.93-9.62 4.4-5.34 7.86-11.4 9.67-18.11 2.15-6.97 3.41-14.23 4.98-21.35.57-.75 1.15-1.49 1.76-2.2"/><path fill="#372039" d="M121.24 214.39c2.54.62 3.86 2.97 5.78 4.73 3.01 4.69 3.79 9.45 9.02 12.36 1.68-4.22 1.94-9.01 2.91-13.45.52-1.34 1.14-2.64 1.82-3.91.15 1.01.28 2.03.37 3.05-.99 5.82-1.13 11.57-.6 17.44.87 8.81.26 17.05 3.29 25.54 2.79 10 9.27 19.36 18.1 24.93 3.88 2.56 7.53 4.99 12.2 5.86-1.42-4.6-4.71-7.97-6.55-12.48-1.99-4.74-4.06-9.47-5.8-14.31 1.85-.37 3.73-.39 5.47.41 3.42 9.74 8.47 18.62 13.84 27.38.55 1.09 1.58 2.4 1.52 3.66-2.26 1.77-4.74 3.18-6.83 5.19-2.08 1.97-4.14 3.88-6.72 5.21 1.11-2.64 5.67-6.53 3.39-9.34-3.47-2.07-7.44-3.2-11.01-5.11-10.18-5-18.4-13.86-22.59-24.4-3.16-8.04-2.76-16.63-3.37-25.06.03-2.1-2.07-3.71-3.29-5.24-5.66-6.1-9.78-12.92-12.43-20.82.48-.56.98-1.1 1.48-1.64"/><path fill="#feaf9a" d="M165.85 217.76c2.82 5.29 5.39 11.45 9.62 15.76 5.04 5 12.99 3.47 19.25 2.3l-.96-1.14c2.73-.57 5.46-1.11 8.17-1.74-1.57 1.36-3.4 2.71-4.62 4.41-.02 2.93.79 5.42-.63 8.18-1.94 3.92-2.87 9.04-5.8 12.29-3.23 1.94-8.28-1.89-10.4 2.49-1.46-.74-2.19-1.99-4-1.36-7.73-12.19-8.04-26.28-11.4-39.8z"/><path fill="#d9b0c6" d="M389.82 217.93c2.45.87 4.84 1.77 7.19 2.89-1.72.15-3.47.18-5.18.45-.63 1.41-.97 2.97-1.19 4.49 1.41-.02 2.82-.17 4.23-.15.38.45.71.96.98 1.52-.59 1.76-1.54 3.33-2.28 5.02.78.28 1.56.53 2.37.67.61-1.32 1.11-2.68 1.86-3.94 1.82.83 3.53 1.84 5.33 2.69.14-.68.24-1.37.3-2.05-1.77-.85-3.66-1.42-5.43-2.26.01-1.53.44-3.39 2-4.05 3.18.62 5.62 1.92 8.84.48-1.13-.54-2.23-1.12-3.3-1.76 2.08-.86 3.95-1.5 6.2-.95-2.16 4.19-1.51 8.71-3.97 12.73.78.59 1.58 1.15 2.4 1.69-1.81 6.71-5.27 12.77-9.67 18.11-3.12 3.66-7.23 6.56-10.93 9.62-2.32 1.74-6.41 3.87-7.28 6.74 1.01 2.89 5.06 4.15 6.4 6.51 1.92 5.81 1.28 12.71.33 18.67-1.95 5.9-3.9 11.67-5.22 17.76a83 83 0 0 0-.89 3.08c-.36 1.41-.7 2.83-.97 4.25-.53-1.57-1.09-3.07-2.14-4.38-1.35.5-2.65 1.08-3.98 1.63-2.62-7 2.45-12.14-1.58-18.55-.55.76-1.04 1.56-1.46 2.39-.7-.34-1.41-.66-2.12-.98-1.75 3.31-1.43 7.9-1.8 11.57l-.63-.24c-.31-2.6-.4-5.23-.53-7.84 1.02-10.2 3.53-20.33 6.98-29.97 1.61-4.83 2.66-9.81 4.41-14.6 1.75-4.39 2.51-8.95 3.57-13.52 1.35-5.82 3.44-11.4 4.75-17.22.79-3.51 1.49-7.03 2.41-10.5"/><path fill="#fcb69e" d="M321.53 230.41c.61-.35 1.33-.48 2.16-.37 1.86 2.94 1.53 7.46 1.21 10.86-.23 2.51-1.98 3.53-3.56 5.21-7.03 6.78-12.12 14.88-20 20.95-2.22-.96-5.11-3.01-7.61-2.6-2.07 5.91-11.01 7.58-15.2 2.97-.96-3.08-.17-6.66-1.2-9.78-1.27-3.71-4.37-6.66-5.9-10.05-.4-2.13.25-4.49.07-6.63-.7-.58-1.6-.99-2.43-1.35 2.97-2.94 5.96-.87 10.11-2.2 2.58-.37 5.13-.51 7.73-.43-1.6 1.34-3.51 2.65-4.92 4.22-.31 2.5 2.12 2.76 3.66 4.17 1.68 1.71 2.51 4.21 4.05 6.04 3.71.61 6.8 1.31 10.31 2.66 2.88-.93 5.57-2.16 8.58-2.74-.21-.71-.47-1.4-.67-2.11 2.03-2.11 4.46-3.63 6.2-6.08 3.03-3.95 4.7-8.65 7.41-12.74"/><path fill="#faa98e" d="M224.76 232.05c2.04 3.14 2.24 6.94-.36 9.82-2.21-3.84-7.26-4.62-11.17-5.86 2.23-4.77 6.93-5.03 11.53-3.96"/><path fill="#47344e" d="M159.2 234.08c1.23 3.37 2.17 6.81 3.78 10.03.27.61.55 1.21.84 1.81-.17 6.49 1.5 12.52 3.43 18.64-1.74-.8-3.62-.78-5.47-.41-1.3-3.87-2.18-7.9-2.9-11.9-.15-6.05-.14-12.14.32-18.17"/><path fill="#ed7866" d="M213.23 236.01c3.91 1.24 8.96 2.02 11.17 5.86-1.32.95-2.75 1.72-4.32 2.15-2.49-1.89-4.12-4.32-5.75-6.94-.41 1.31-.54 2.66-.87 3.99-.18-1.68-.32-3.36-.23-5.06"/><path fill="#b33927" d="M214.33 237.08c1.63 2.62 3.26 5.05 5.75 6.94-3.35.22-4.6-.29-6.62-2.95.33-1.33.46-2.68.87-3.99"/><path fill="#d5a9c4" d="M380 243.86c-.14 4.3-1.15 8.63-1.91 12.87-2.32 6.17-4.52 12.38-6.74 18.59-2.85 7.38-4.49 14.88-6.47 22.52-1.8 5.96-2.1 12.01-2.06 18.19.1 5.36 1.55 10.33 2.28 15.57.46 2.67-1.91 5.59-3.06 7.85l-1.09-1.38c-3.58-9.91.15-21.66-3.86-31.13-2.48-6.01-8.69-6.91-14.18-8.8a30 30 0 0 1-1.91-2.01c2.03-2.06 4.13-3.98 5.79-6.37 3.97-5.41 9.01-10.06 13.58-14.97 5.81-5.1 10.53-11.09 15.03-17.34 2.82-4.37 2.4-9.13 4.6-13.59"/><path fill="#9d2d1e" d="M251.72 252.29c.55.5.99 1.07 1.31 1.69-.21 1.51-2.2 2.11-3.38 2.71-4.94 2.05-10.13 3.74-15.42 4.58-1.76-.11-3.52-.31-5.26-.49 2.03-.66 4.12-1.17 6.21-1.63 6.18-1.05 10.93-4.59 16.54-6.86"/><path fill="#4a2c43" d="M319.97 252.32c.48.48.93.99 1.36 1.51-1.88 4.55-3.34 9.17-3.46 14.13.18 7.39-3.71 13.21-2.83 20.78.79.9 1.73 1.63 2.73 2.29 1.65.63 3.34.93 5.06 1.32 3.22 1.59 6.54 2.29 10.06 2.85 3.32 1.08 6.64 2.05 10.02 2.94 5.49 1.89 11.7 2.79 14.18 8.8 4.01 9.47.28 21.22 3.86 31.13 1.46 9.84-1.36 18.49-4.38 27.7-.59 2.21-2.28 4.17-.57 6.28 3.31 4.23 7.93 5.97 12.48 8.38 1.31.77 1.61 1.12 2.04 2.62-.88.11-1.78.17-2.67.18-5.23-1.12-10.21-3.92-15.51-5.05.7 3.27 1.93 6.22 3.14 9.32 5.16 13.44 7.97 27.14 12.2 40.82 2.76 8.73 4.65 17.68 7.64 26.34 4.44 15.21 8.88 31.5 16.7 45.34h-4.94c-8.57-15.26-13.29-32.1-18.37-48.76-2.32-7.17-4.46-14.4-6.54-21.65-3.31-12.97-6.73-26.14-11.53-38.64-.17-.68-.32-1.35-.48-2.03.58-3.57-1.73-5.81-2.92-9.11-2.61-6.68-4.8-13.4-8.21-19.85-1.21-2.15-2.64-4.09-4.98-5.1-3.4-1.05-7.05-1.56-10.56-2.17-6.52-1.21-13.74-.17-20.29.57-7.74 1.25-15.46 2.61-23.22 3.68-2.96.51-6.27.74-9.01 2-.97.81-.89 2.64-1.27 3.8-5.47 18.44-9.32 37.05-11.89 56.11-.88 7.04-1.66 14.04-1.38 21.15-.11 3.47.34 7.99-1.31 11.11-1.96 1.22-4.86 1.2-7.09 1.08-2.7.2-3.4-3.1-4.09-5.09-1.51-6.38-.05-13.55-.24-20.1-.02-22.18 5-42.67 10.12-64.05-1.54-.81-3.15-1.35-4.53-2.46.45-.58.91-1.15 1.38-1.7 2.65-1.71 5.26-3.62 8.09-4.99 3.02-1.55 6.96-1.07 10.28-1.17 4.75.06 9.38-.69 14.04-1.53 10.72-.64 21.09-3.18 31.93-3.18 7.74.11 15.4.42 22.97 2.22 2.65 2.02 5.01 4.26 6.81 7.08 1.73 2.75 2.72 5.97 4.38 8.74 1.69-.7 2.71-1.63 3.34-3.38 1.65-4.67 2.22-9.79 2.4-14.72-.2-4.31-1.22-8.51-1.18-12.85-.26-6.66.48-13.6-.69-20.16-.21-1.02-.47-2.04-.78-3.04-.74-2.29-1.72-5.08-4.5-5.37-4.13 0-8.2 1.32-12.35 1.53-3.64-2.72-6.77-1.11-10.77-.37-3.47.85-6.99 1.18-10.55 1.22.58-.63 1.17-1.26 1.79-1.88 5.76-.96 11.53-2.01 17.34-2.61 1.6-.14 3.19-.31 4.78-.57-1.46-2.12-4.91-2.76-7.23-3.5-8.38-1.99-16.92-3.81-25.5-4.55-7.09-1.07-13.94-.32-21.09-.6l.06-.89c1.54-.36 3.07-.43 4.64-.57-2.66-.31-4.22-1.95-6.09-3.66 5.74.31 11.46-.03 17.21.14 3.61.07 7.43.35 11-.12.54-4.28.18-8.72.38-13.04.16-5.45 1.3-10.6 2.63-15.85 1.84-3.03 3.49-6.23 5.96-8.8"/><path fill="#8a0403" d="M211.04 254.16c2.58.99 4.6 2.58 6.94 4 1.83 1.18 3.84 1.7 5.86 2.43-.99.23-1.97.44-2.96.63-3.2-.75-6.88-1.6-9.56-3.59-1.23-1.06-1.38-2.24-.28-3.47"/><path fill="#7d4b79" d="M321.33 253.83c6.28 1.8 13.28 1.58 19.75 1.24-4.52 1.31-10.29-.39-14.37 1.57-2.37 3-2.9 7.99-3.14 11.75.38 7.38.98 15.28 3.69 22.22.88 2.75 3.34 3.33 5.63 4.59-3.52-.56-6.84-1.26-10.06-2.85-.07-4.79.08-9.21-2.66-13.39-1.74 3.86-2.11 7.9-2.4 12.07-1-.66-1.94-1.39-2.73-2.29-.88-7.57 3.01-13.39 2.83-20.78.12-4.96 1.58-9.58 3.46-14.13"/><path fill="#8b639a" d="M344.46 254.23c1.93 2.23 5.85-.06 8.21 2.1.35 2.34.28 4.77.74 7.08 1.09.41 2.17.82 3.26 1.22.08 1.56-.1 3.14-.14 4.71-.55 2.35 2.59 3.73 3.84 5.45-4.57 4.91-9.61 9.56-13.58 14.97-1.66 2.39-3.76 4.31-5.79 6.37.6.7 1.24 1.36 1.91 2.01-3.38-.89-6.7-1.86-10.02-2.94-2.29-1.26-4.75-1.84-5.63-4.59-2.71-6.94-3.31-14.84-3.69-22.22.24-3.76.77-8.75 3.14-11.75 4.08-1.96 9.85-.26 14.37-1.57 1.14-.24 2.26-.55 3.38-.84"/><path fill="#6f5288" d="M410.68 253.89c-.17 3.9.17 7.9-.35 11.76-.48 2.98-2.55 5.01-4.25 7.35-1.57 2-2.38 4.32-3.7 6.44-1.22 1.64-2.94 2.94-4.12 4.61-2.59 4.59-3.72 9.44-4.51 14.61-.52 3.63-2.26 6.64-4.19 9.69l-.34.56c-1.93 1.14-3.77 2.39-5.42 3.9 1.32-6.09 3.27-11.86 5.22-17.76 3.28-10.69 8.84-20.89 15-30.19 2.3-3.71 3.62-7.71 6.66-10.97"/><path fill="#a483b3" d="M401.99 255.99c2.5 2.75 2.71 5.35 2.03 8.87-6.16 9.3-11.72 19.5-15 30.19.95-5.96 1.59-12.86-.33-18.67-1.34-2.36-5.39-3.62-6.4-6.51.87-2.87 4.96-5 7.28-6.74 1.29.02 2.59-.04 3.82.33.09.8.17 1.6.23 2.4 2.59-3.75 4.18-7.52 8.37-9.87"/><path fill="#693a61" d="M378.09 256.73c.36.8.7 1.61 1 2.44-1.75 4.79-2.8 9.77-4.41 14.6-3.45 9.64-5.96 19.77-6.98 29.97-.87 6.74-.87 13.41.22 20.13.43 4 1.16 7.66 3.24 11.15l-.32 1.75c-7.63-10.73-7.15-26.41-5.96-38.93 1.98-7.64 3.62-15.14 6.47-22.52 2.22-6.21 4.42-12.42 6.74-18.59"/><path fill="#c84e2e" d="M217.98 258.16c5.67 1.55 11.39 1.57 17.2.99-2.09.46-4.18.97-6.21 1.63 1.74.18 3.5.38 5.26.49-4.46.8-8.92 1.03-13.35-.05.99-.19 1.97-.4 2.96-.63-2.02-.73-4.03-1.25-5.86-2.43"/><path fill="#a82723" d="M178.06 265.96c2.94 2.52 4.93 7.48 9.3 7.28 3.14 1.9 6.09 4.19 9.17 6.23 6.63 4.45 14.07 7.73 21.56 10.42 9.66 3.41 19.93 4.49 29.97 2.16-1.03.49-2.05 1.01-3.07 1.53-3.26 1.29-6.57 2.27-10.01 2.91-6.08.06-11.91.27-17.77-1.67-16.4-4.52-31.38-13.49-42.17-26.75.99-.72 1.98-1.47 3.02-2.11"/><path fill="#a71517" d="M278.71 281.89c1.57.05 3.16.12 4.71.38-.25 1.01-.57 2-.81 3.01-.22 1.54.05 3.17.18 4.71-.6-.19-1.21-.35-1.82-.5-2.41 2.52-1.47 7.48-1.93 10.76-.3-2.29-.66-4.58-1.12-6.84-4.6 3.44-9.18 6.72-14.48 9.03-4.46 2.3-9.26 3.35-13.93 5.04-.72 3.29-.85 7.07-.48 10.41.15 1.25 1.36 2.28 2.06 3.28-1.31.6-2.61 1.24-3.88 1.93 1.85-6.97.3-13.07 0-20.1-.15-3.39-.7-6.36-2.22-9.42 1.02-.52 2.04-1.04 3.07-1.53 10.5-2.74 20.9-5.26 30.65-10.16"/><path fill="#541223" d="M280.97 289.49c.61.15 1.22.31 1.82.5 1.87 1.71 3.43 3.35 6.09 3.66-1.57.14-3.1.21-4.64.57l-.06.89c.07 5.72.48 11.75 1.44 17.39 1.49 1.94 5.65 3.31 4.79 6.12-2.5 1.23-4.84 1.89-6.57 4.24-3.54 2.54-7.43 4.46-10.95 7.03-3.26 2.37-6.41 4.88-9.61 7.33-1.11-1.08-2.21-2.16-3.33-3.23 4.29-3.39 8.53-6.94 13.12-9.93 2.99-1.96 6.39-3.24 9.34-5.25-.86-4.45-2.47-8.75-3.41-13.2.01-1.79.05-3.58.04-5.36.46-3.28-.48-8.24 1.93-10.76"/><path fill="#e66857" d="M277.92 293.41c.46 2.26.82 4.55 1.12 6.84.01 1.78-.03 3.57-.04 5.36-3.36 2.75-6.32 6.07-9.9 8.52-5.22 3.38-11.06 5.66-17.17 6.84l-.84.2c-.7-1-1.91-2.03-2.06-3.28-.37-3.34-.24-7.12.48-10.41 4.67-1.69 9.47-2.74 13.93-5.04 5.3-2.31 9.88-5.59 14.48-9.03"/><path fill="#570e20" d="M244.99 293.58c1.52 3.06 2.07 6.03 2.22 9.42.3 7.03 1.85 13.13 0 20.1-2.55 3.2-6.03 5.5-8.46 8.77.02 1.99.22 4.01.41 6-.03 1.7-.12 3.41-.22 5.11-1.49-3.9-3.08-7.85-4.19-11.87.98-4.48 5.62-8.4 8.32-12.03 1.34-1.51 2.33-2.89 2.25-5.03-.03-5.81.08-11.96-1.33-17.62-2.71.65-5.34 1.66-8 2.52-5.46.93-10.95 3.47-16.43 3.1 4.76-2.97 10-4.34 15.42-5.56 3.44-.64 6.75-1.62 10.01-2.91"/><path fill="#9b7da7" d="M284.18 295.11c7.15.28 14-.47 21.09.6-6.68.75-13.58-.79-20.12.48l-.54.74c2.15 3.16 6.76 3.34 10.19 4.23 6.99 1.18 12.51 3.67 19.22 3.15 6.41-.31 12.79.24 19.2.02-5.81.6-11.58 1.65-17.34 2.61-5.26.89-10.58 1.82-15.71 3.3-3.24.92-6 3.04-9.22 3.92-1.79.33-3.75-.93-5.33-1.66-.96-5.64-1.37-11.67-1.44-17.39"/><path fill="#967293" d="M243.99 296.43c1.41 5.66 1.3 11.81 1.33 17.62.08 2.14-.91 3.52-2.25 5.03-2.02.99-4.06 1.93-6.03 3.02-1.32.69-2.71 1.41-4.13 1.89-1.48-.54-2.54-2.33-3.25-3.67-1.72-3.27.22-8.29-2.28-11.03-.53-.5-1.09-.94-1.69-1.32-4.37.22-8.76 2.42-12.86 3.86 2.07-2.11 4.25-3.8 7-4.95 5.54-2.36 10.63-5.59 16.16-7.93 2.66-.86 5.29-1.87 8-2.52"/><path fill="#c7a5b8" d="M285.15 296.19c6.54-1.27 13.44.27 20.12-.48 8.58.74 17.12 2.56 25.5 4.55 2.32.74 5.77 1.38 7.23 3.5-1.59.26-3.18.43-4.78.57-6.41.22-12.79-.33-19.2-.02-6.71.52-12.23-1.97-19.22-3.15-3.43-.89-8.04-1.07-10.19-4.23z"/><path fill="#bf80ac" d="M364.88 297.84c-1.19 12.52-1.67 28.2 5.96 38.93l.32-1.75c1.51 2.55 2.85 5.17 4.12 7.85 1.93 4.06 4.47 7.58 6.76 11.46-4.05-.45-7.2-2.61-10.32-5.08-2.54-2.14-4.05-4.73-6.84-6.38-.79 2.11-1.44 4.21-2.72 6.1-.17-3.17-.17-6.34-.12-9.52 1.15-2.26 3.52-5.18 3.06-7.85-.73-5.24-2.18-10.21-2.28-15.57-.04-6.18.26-12.23 2.06-18.19"/><path fill="#4e354b" d="M235.99 298.95c-5.53 2.34-10.62 5.57-16.16 7.93-2.75 1.15-4.93 2.84-7 4.95-.99.88-1.96 1.78-2.93 2.69-4.87 3.67-7.18 9.08-8.43 14.89-.76 4.47-.28 9.13 2.67 12.75 2.2 2.41 5.01 4.3 7.84 5.88 4.56 2.75 11.05.96 15.79 3.18 3.86 1.99 5.66 6.87 9.13 9 2.04-3.4 1.05-6.6-.06-10.09-1.53-4.28-2.82-8.58-3.83-13.01.08-3.28.09-6.62.54-9.87.28-1.99 2.17-3.75 3.49-5.15 1.97-1.09 4.01-2.03 6.03-3.02-2.7 3.63-7.34 7.55-8.32 12.03 1.11 4.02 2.7 7.97 4.19 11.87.1-1.7.19-3.41.22-5.11 1.02 4.25 1.95 8.52 3.03 12.76 6.16-5.3 11.61-11.38 17.76-16.64 1.12 1.07 2.22 2.15 3.33 3.23-5.6 5.12-10.86 10.48-16.13 15.92-2.03 2.28-6.01 4.36-5.93 7.69 3.45.63 6.37-.71 9.45-2.04-.47.55-.93 1.12-1.38 1.7 1.38 1.11 2.99 1.65 4.53 2.46-4.83.95-9.05 3.29-13.82 3.07-3.48.01-6.1-2.46-9.09-3.91-2.64 3.67-2.98 9.2-4.31 13.49-5.47 19.71-10.02 39.95-12.4 60.28-.74.42-1.49.83-2.24 1.23-.62-10.43 2.13-19.83 3.37-30.04 1.32-8.88 3.32-17.69 5.48-26.4 1.96-6.56 3.56-13.18 4.97-19.88.4-2.29.96-4.33 0-6.57-1.45-.2-2.84-.33-4.22.28-1.78 2.92-2.35 6.74-3.17 10.03-2.29 10.55-5.89 20.72-7.86 31.3-2.35 12.62-5.62 24.18-6.03 37.18 0 1.38.16 2.73.45 4.02 1.92.43 3.9.61 5.86.65-3.48.93-5.59.95-8.88-.53 1.12-12.71 1.19-24.58 4.28-37.09 1.38-4.93 3.15-9.71 4.12-14.77 1.18-6.04 2.36-12.07 3.94-18.03.63-2.77 1.68-5.93 1.3-8.79-1.94-1.77-4.36-3.1-6.51-4.61-2.6-1.74-5.2-4-8.06-5.25-5.39 3.24-9.26 9.85-12.17 15.29-5.62 7.5-10.2 15.66-15.69 23.24-3.92 5.47-7.29 11.13-11.92 16.08-1.74 2.08-4.29 4.31-5.08 6.95.066-.008-3.192-6.342-3.2-6.29 10.44-11.06 18.49-25.29 27.21-37.73 4.22-5.98 7.93-12.86 12.96-18.06 1.28-1.39 2.73-2.78 3.76-4.36-.06-3.93-1.5-7.73-1.36-11.74.08-5.79 2.19-11.23 5.65-15.83 4.66-6.54 11.16-10.85 18.4-14.11 5.48.37 10.97-2.17 16.43-3.1"/><path fill="#d79bbf" d="M374.24 298.84c4.03 6.41-1.04 11.55 1.58 18.55 1.33-.55 2.63-1.13 3.98-1.63 1.05 1.31 1.61 2.81 2.14 4.38-.04 3.29.28 7.13-.81 10.27-4.82.04-10.21-2.73-13.21-6.54-1.09-6.72-1.09-13.39-.22-20.13.13 2.61.22 5.24.53 7.84l.63.24c.37-3.67.05-8.26 1.8-11.57.71.32 1.42.64 2.12.98.42-.83.91-1.63 1.46-2.39"/><path fill="#fec5a5" d="M279 305.61c.94 4.45 2.55 8.75 3.41 13.2-2.95 2.01-6.35 3.29-9.34 5.25-4.59 2.99-8.83 6.54-13.12 9.93-6.15 5.26-11.6 11.34-17.76 16.64-1.08-4.24-2.01-8.51-3.03-12.76-.19-1.99-.39-4.01-.41-6 2.02-.12 5.3.91 6.51-1.19 2.39-3.3 3.45-6.95 6.67-9.71 6.11-1.18 11.95-3.46 17.17-6.84 3.58-2.45 6.54-5.77 9.9-8.52"/><path fill="#643557" d="M335.41 307.97c-9.13 2.13-18.35 3.87-27.48 5.98-8.31 2.26-16.27 5.35-24.09 8.91 1.73-2.35 4.07-3.01 6.57-4.24.86-2.81-3.3-4.18-4.79-6.12 1.58.73 3.54 1.99 5.33 1.66 3.22-.88 5.98-3 9.22-3.92 5.13-1.48 10.45-2.41 15.71-3.3-.62.62-1.21 1.25-1.79 1.88 3.56-.04 7.08-.37 10.55-1.22 4-.74 7.13-2.35 10.77.37"/><path fill="#dfd9df" d="M347.76 306.44c2.78.29 3.76 3.08 4.5 5.37-.13 4.39-.07 8.82-.48 13.2-1.38-2.4-.63-6.28-1-9.02-1.2 2.31-2.28 5.74-4.54 7.2-2.51 1.02-5.39 1.1-7.94 2.03-1.53 1.49-2.52 3.49-4.08 4.94-1.52.47-3.12.72-4.66 1.13-.21 3.94 1.07 7.42 2.82 10.87-2.01-.08-3.83-.46-5.76.36-4.48 1.97-9.09 1.07-13.75 2.37-9.96 1.95-19.85 4.16-29.79 6.21-4.66.84-9.29 1.59-14.04 1.53-3.32.1-7.26-.38-10.28 1.17-2.83 1.37-5.44 3.28-8.09 4.99-3.08 1.33-6 2.67-9.45 2.04-.08-3.33 3.9-5.41 5.93-7.69 5.27-5.44 10.53-10.8 16.13-15.92 3.2-2.45 6.35-4.96 9.61-7.33 3.52-2.57 7.41-4.49 10.95-7.03 7.82-3.56 15.78-6.65 24.09-8.91 9.13-2.11 18.35-3.85 27.48-5.98 4.15-.21 8.22-1.53 12.35-1.53"/><path fill="#ddd4dd" d="M225.69 307.97c.6.38 1.16.82 1.69 1.32-1.54 1.38-3.86 2.82-4.64 4.8-.2 2.78 1.66 5.84 2.91 8.25 2.79 4.76 5.33 9.64 7.36 14.78 1.01 4.43 2.3 8.73 3.83 13.01 1.11 3.49 2.1 6.69.06 10.09-3.47-2.13-5.27-7.01-9.13-9-4.74-2.22-11.23-.43-15.79-3.18-2.83-1.58-5.64-3.47-7.84-5.88.6-.37 1.2-.75 1.8-1.12 1.31 1.13 1.81 2.5 3.81 1.92.03-2.63-.16-5.21.35-7.82 1.56 1.88 2.69 4.25 3.93 6.22.65-.71 1.24-1.46 1.78-2.25-1.67-2.42-3.32-4.69-4.08-7.6.86.44 1.73.84 2.62 1.22 1.48-2.68-2.02-5.63-3.12-7.97-2.07-2.87-.16-4.91.44-7.85l-.8-1.14-.97-1.25c.97-.91 1.94-1.81 2.93-2.69 4.1-1.44 8.49-3.64 12.86-3.86"/><path fill="#3e325b" d="m389.56 308.35-.34.56zm-.34.56.17 2.22-.34 1.83c-.75.99-1.15 2.02-1.22 3.08-.49 5.25-.39 10.37 1.84 15.25 3.75 8.93 11.54 15.38 20.63 18.43 1.77 2.62 2.12 4.85 2.19 7.96-2.71-1.75-5.45-3.42-8.39-4.75-4.25-2.3-8.2-5-11.71-8.31-3.49-3.29-6.08-7.59-8.44-11.74-1.21-5.61-1.71-11.26-1.04-16.99.28-1.03.57-2.06.89-3.08 1.65-1.51 3.49-2.76 5.42-3.9"/><path fill="#7a5e76" d="M227.38 309.29c2.5 2.74.56 7.76 2.28 11.03.71 1.34 1.77 3.13 3.25 3.67 1.42-.48 2.81-1.2 4.13-1.89-1.32 1.4-3.21 3.16-3.49 5.15-.45 3.25-.46 6.59-.54 9.87-2.03-5.14-4.57-10.02-7.36-14.78-1.25-2.41-3.11-5.47-2.91-8.25.78-1.98 3.1-3.42 4.64-4.8"/><path fill="#d1c9d2" d="M352.26 311.81c.31 1 .57 2.02.78 3.04-.07 10.13-.14 20.41.81 30.49-3.73-1.19-6.88-1.58-10.82-1.48-10.11-.42-20.05 1.26-30.16 1.03 4.66-1.3 9.27-.4 13.75-2.37 1.93-.82 3.75-.44 5.76-.36-1.75-3.45-3.03-6.93-2.82-10.87 1.54-.41 3.14-.66 4.66-1.13 1.56-1.45 2.55-3.45 4.08-4.94 2.55-.93 5.43-1.01 7.94-2.03 2.26-1.46 3.34-4.89 4.54-7.2.37 2.74-.38 6.62 1 9.02.41-4.38.35-8.81.48-13.2"/><path fill="#fefefe" d="m209.9 314.52.97 1.25c-2.22 4.69-4.33 9.45-5.53 14.54-.8 3.37.17 7.31.6 10.73-.6.37-1.2.75-1.8 1.12-2.95-3.62-3.43-8.28-2.67-12.75 1.25-5.81 3.56-11.22 8.43-14.89"/><path fill="#ae97ae" d="M353.04 314.85c1.17 6.56.43 13.5.69 20.16-.04 4.34.98 8.54 1.18 12.85-.46 2.04-.86 3.74-2.54 5.13.04-1.97.23-3.94.25-5.91-.73-.12-1.47-.22-2.22-.27.06 1.15.2 2.31.24 3.47-4.21.04-8.45.17-12.66-.14-7.57-1.8-15.23-2.11-22.97-2.22-10.84 0-21.21 2.54-31.93 3.18 9.94-2.05 19.83-4.26 29.79-6.21 10.11.23 20.05-1.45 30.16-1.03 3.94-.1 7.09.29 10.82 1.48-.95-10.08-.88-20.36-.81-30.49"/><path fill="#c5b7cf" d="m210.87 315.77.8 1.14c-.6 2.94-2.51 4.98-.44 7.85 1.1 2.34 4.6 5.29 3.12 7.97-.89-.38-1.76-.78-2.62-1.22.76 2.91 2.41 5.18 4.08 7.6-.54.79-1.13 1.54-1.78 2.25-1.24-1.97-2.37-4.34-3.93-6.22-.51 2.61-.32 5.19-.35 7.82-2 .58-2.5-.79-3.81-1.92-.43-3.42-1.4-7.36-.6-10.73 1.2-5.09 3.31-9.85 5.53-14.54"/><path fill="#ce88b3" d="M382.91 315.89c-.67 5.73-.17 11.38 1.04 16.99.49 2.74.58 5.74 1.9 8.19 2.01 3.71 4.56 6.97 7.21 10.22-1 .07-2.01.15-3.01.22 1.19 2.22 2.75 4.24 3.94 6.46-.65.49-1.31.97-1.99 1.44-3.28-1.77-6.61-3.44-9.96-5.08-2.29-3.88-4.83-7.4-6.76-11.46-1.27-2.68-2.61-5.3-4.12-7.85-2.08-3.49-2.81-7.15-3.24-11.15 3 3.81 8.39 6.58 13.21 6.54 1.09-3.14.77-6.98.81-10.27.27-1.42.61-2.84.97-4.25"/><path fill="#ffa17c" d="m251.09 321.17.84-.2c-3.22 2.76-4.28 6.41-6.67 9.71-1.21 2.1-4.49 1.07-6.51 1.19 2.43-3.27 5.91-5.57 8.46-8.77 1.27-.69 2.57-1.33 3.88-1.93"/><path fill="#c3bcc9" d="M314.03 333.12c-.85 1.7-2.31 1.58-3.94 2-10.85 1.84-21.63 4.2-32.38 6.59-4.41.96-8.56 2.71-12.9 3.89.92-1.1 1.63-2.19 2.99-2.79 3.92-1.78 8.38-2.63 12.57-3.58 11.05-2.35 22.38-5.25 33.66-6.11"/><path fill="#b47a9f" d="M383.95 332.88c2.36 4.15 4.95 8.45 8.44 11.74 3.51 3.31 7.46 6.01 11.71 8.31-.42 2.49-1.49 4.36.38 6.55 2.45 3.41 8.69 2.61 12.35 2.66l.4.71c-6.3.71-12.45.03-18.73.11-2.38-.89-4.44-2.08-6.5-3.55.68-.47 1.34-.95 1.99-1.44-1.19-2.22-2.75-4.24-3.94-6.46 1-.07 2.01-.15 3.01-.22-2.65-3.25-5.2-6.51-7.21-10.22-1.32-2.45-1.41-5.45-1.9-8.19"/><path fill="#a6679e" d="m360.95 338.07 1.09 1.38c-.05 3.18-.05 6.35.12 9.52 1.28-1.89 1.93-3.99 2.72-6.1 2.79 1.65 4.3 4.24 6.84 6.38 3.12 2.47 6.27 4.63 10.32 5.08 3.35 1.64 6.68 3.31 9.96 5.08 2.06 1.47 4.12 2.66 6.5 3.55l1.55.76c-2.33-.23-4.66-.4-7-.47 4.52 4.97 13.48 6.68 15.67 13.09 1.01 4.41-.55 10.32-3.02 14.1-1.49.33-3.94.29-4.23-1.66-1.27-4.03-1.1-7.68-5.15-10.09-6.39-.6-12.82.8-19.25.09-6.11-.6-13.28-1.77-18.36-5.43-2.59-1.6-1.86-4.99-2.14-7.58 3.02-9.21 5.84-17.86 4.38-27.7"/><path fill="#8e6e87" d="M350.4 346.81c.75.05 1.49.15 2.22.27-.02 1.97-.21 3.94-.25 5.91 1.68-1.39 2.08-3.09 2.54-5.13-.18 4.93-.75 10.05-2.4 14.72-.63 1.75-1.65 2.68-3.34 3.38-1.66-2.77-2.65-5.99-4.38-8.74-1.8-2.82-4.16-5.06-6.81-7.08 4.21.31 8.45.18 12.66.14-.04-1.16-.18-2.32-.24-3.47"/><path fill="#8b5380" d="M393.05 363.25c2.34.07 4.67.24 7 .47 4.36 2.15 8.66 3.18 11.96 6.95-1.15.1-2.36-.09-3.49.15 1.44 3.99 2.78 7.75 2.2 12.08-.9 6.68-3.89 14.3-10.62 16.97-.66-.7-1.93-1.7-1.71-2.77.31-4.34 1.02-8.52.43-12.89-1.53.96-1.02 5.14-1.62 6.93.15-3.44.8-6.44-1.99-9.02.62-.32 1.21-.68 1.78-1.07-.2-.8-.42-1.58-.67-2.36 4.05 2.41 3.88 6.06 5.15 10.09.29 1.95 2.74 1.99 4.23 1.66 2.47-3.78 4.03-9.69 3.02-14.1-2.19-6.41-11.15-8.12-15.67-13.09"/><path fill="#dac3c9" d="M188.83 363.9a67 67 0 0 0-2.85 7.16c2.47-1.9 4.69-4.16 6.98-6.27-.04 9.93-4.71 20.14-7.6 29.59-3.35 9.06-4.64 18.41-6.33 27.86-.46-1.57-1.03-3-1.94-4.37-.6 1.66-1.12 3.34-1.34 5.1-.41 3.74.97 6.97.28 10.68-1.78-1.01-3.41-2.33-4.93-3.68-3.14-3.61-6.36-7.1-10.06-10.13-1.96-2.64-5.37-6.15-4.9-9.67.79-2.64 3.34-4.87 5.08-6.95 4.63-4.95 8-10.61 11.92-16.08 5.49-7.58 10.07-15.74 15.69-23.24"/><path fill="#6a3b6d" d="M356.57 365.77c.28 2.59-.45 5.98 2.14 7.58 5.08 3.66 12.25 4.83 18.36 5.43 6.43.71 12.86-.69 19.25-.09.25.78.47 1.56.67 2.36-.57.39-1.16.75-1.78 1.07-9.16 2.02-18.07 3.29-27.36 1.11.89-.01 1.79-.07 2.67-.18-.43-1.5-.73-1.85-2.04-2.62-4.55-2.41-9.17-4.15-12.48-8.38-1.71-2.11-.02-4.07.57-6.28"/><g class="arm"><path fill="#a71d1a" d="M65.86 326.94c4.96 4.35 7.82 10.01 10.16 16.06 3.24 7.74 6.8 16.28 12.31 22.67 1.7 2.06 3.32 4.17 4.81 6.39-1.53-.32-3.89-.07-5.06-1.21-2.67-2.67-4.81-5.95-6.78-9.15-3.56-6.54-6.69-13.2-8.7-20.39-1.47-5.22-5.17-9.17-6.74-14.37"/><path fill="#971817" d="M83.27 272.69c3.34 3.07 5.43 7.56 8.21 11.15.28-3.62.07-6.88 2.37-9.94 1.43-2.59 5.11-1.99 7.39-1.09 3.62 2.01 6.11 6.4 7.99 9.96 6.14 12.61 8.28 27.14 14.08 39.86 2.56-1.27 4.31-5.04 6.75-6.85 2.28-.56 3.32-.12 5.31 1-2.52 2.47-4.99 4.67-6.84 7.71-1.42 2.22-2.49 4.82-4.22 6.8-2.04 1.44-4.73 2.01-6.98 3.08-3.35 1.41-5.44 4.15-7.76 6.81-.95-2.2-.72-3.08.25-5.28 2.76-3.49 7.14-4.98 10.06-8.08-1.06-4.69-4.22-8.64-5.3-13.41-2.09-8.26-4.17-16.44-7.74-24.22-1.86-3.94-3.69-9.08-7.15-11.88-4.05-.43-5.52 6.04-3.89 8.93 2.3 4.92 4.74 9.62 6.04 14.94 1.25 4.61 3.22 9.78 2.9 14.57-1.14.18-2.23.14-3.28-.12-1.46-3.03-2.36-6.32-3.7-9.41-3.44-8.12-7.97-15.86-12.66-23.31-1.41-2.13-2.85-4.58-4.85-6.2-1.38-1.12-3.61-.13-4.91.68-1.4 6.31 4.09 13.13 6.56 18.72 3.44 7.64 7.43 15.09 10.7 22.77-1.29 1.43-2.97 2.35-4.74 3.08-1.08-8.95-6.48-14.48-10.9-21.92-2.43-3.67-4.55-8.2-7.88-11.1-1.41-1.24-3.07-.84-4.78-.68-1.85 4.59.53 8.73 2.82 12.59 3.86 6 6.61 12.56 10.55 18.49 1.3 2.09 2.94 4.33 3.57 6.73.19 1.32-.79 2.7-1.38 3.84-2.81-3.52-4.81-7.53-7.97-10.81-3.61-3.75-6.71-8.41-10.94-11.45-.94.06-1.74.35-2.4.85-1.68 2.33.74 6.17 1.57 8.52-.8-.29-1.64-.52-2.41-.89-1.11-2.46-1.59-5.35-1.86-8.02.57-2.2 4.61-1.77 5.84-3.43-.87-2.85-2.22-5.15-1.83-8.23.34-2.88.52-6.11 1.77-8.74 2.56-2.5 5.22-1.76 8.39-1.5.56-2.5.39-5.33 1.3-7.73 1.29-2.86 3.75-4.78 6.12-6.7 1.81-.26 4.32-1.53 5.83-.09"/><path fill="#fec1a8" d="M80.25 277.71c2 1.62 3.44 4.07 4.85 6.2 4.69 7.45 9.22 15.19 12.66 23.31 1.34 3.09 2.24 6.38 3.7 9.41 1.05.26 2.14.3 3.28.12.32-4.79-1.65-9.96-2.9-14.57-1.3-5.32-3.74-10.02-6.04-14.94-1.63-2.89-.16-9.36 3.89-8.93 3.46 2.8 5.29 7.94 7.15 11.88 3.57 7.78 5.65 15.96 7.74 24.22 1.08 4.77 4.24 8.72 5.3 13.41-2.92 3.1-7.3 4.59-10.06 8.08-4.76 4.58-5.72 10.86-6.36 17.15.12 1.42.03 3.82 2.03 3.65.7-5.58 2.07-10.29 4.08-15.52 2.32-2.66 4.41-5.4 7.76-6.81 2.25-1.07 4.94-1.64 6.98-3.08 1.73-1.98 2.8-4.58 4.22-6.8 1.85-3.04 4.32-5.24 6.84-7.71 2.25-.44 5.49-2.1 7.57-.64.21.73.06 1.5-.44 2.32-2.26 4.21-5.26 7.68-6.6 12.4-2.32 7.91-3.58 16.12-5.7 24.1-2.16 3.97-4.32 7.59-8.46 9.78-6.91 3.5-14.31 7.66-21.83 9.41-2.39.91-4.65-1.12-6.77-2.09-1.49-2.22-3.11-4.33-4.81-6.39-5.51-6.39-9.07-14.93-12.31-22.67-2.34-6.05-5.2-11.71-10.16-16.06-1.69-3.12-3.5-6.16-5.74-8.92-.83-2.35-3.25-6.19-1.57-8.52.66-.5 1.46-.79 2.4-.85 4.23 3.04 7.33 7.7 10.94 11.45 3.16 3.28 5.16 7.29 7.97 10.81.59-1.14 1.57-2.52 1.38-3.84-.63-2.4-2.27-4.64-3.57-6.73-3.94-5.93-6.69-12.49-10.55-18.49-2.29-3.86-4.67-8-2.82-12.59 1.71-.16 3.37-.56 4.78.68 3.33 2.9 5.45 7.43 7.88 11.1 4.42 7.44 9.82 12.97 10.9 21.92 1.77-.73 3.45-1.65 4.74-3.08-3.27-7.68-7.26-15.13-10.7-22.77-2.47-5.59-7.96-12.41-6.56-18.72 1.3-.81 3.53-1.8 4.91-.68"/><path fill="#c84c3f" d="M109.82 335.9c-.97 2.2-1.2 3.08-.25 5.28-2.01 5.23-3.38 9.94-4.08 15.52-2 .17-1.91-2.23-2.03-3.65.64-6.29 1.6-12.57 6.36-17.15"/><path fill="#a42922" d="M140.14 310.36c3.75-.58 7.89 2.16 9.15 5.65-1.36 4.13-4.87 7.52-6.89 11.39-3.86 6.66-3.35 14.18-5.36 21.64-.95 3.92-2.21 7.45-5.2 10.3-.54-1.46-1.11-2.91-1.64-4.38 2.12-7.98 3.38-16.19 5.7-24.1 1.34-4.72 4.34-8.19 6.6-12.4.5-.82.65-1.59.44-2.32-2.08-1.46-5.32.2-7.57.64-1.99-1.12-3.03-1.56-5.31-1 2.81-2.27 6.37-5.09 10.08-5.42"/><path fill="#691822" d="M61.69 305.68c-1.23 1.66-5.27 1.23-5.84 3.43.27 2.67.75 5.56 1.86 8.02.77.37 1.61.6 2.41.89 2.24 2.76 4.05 5.8 5.74 8.92 1.57 5.2 5.27 9.15 6.74 14.37 2.01 7.19 5.14 13.85 8.7 20.39 1.97 3.2 4.11 6.48 6.78 9.15 1.17 1.14 3.53.89 5.06 1.21 2.12.97 4.38 3 6.77 2.09 7.52-1.75 14.92-5.91 21.83-9.41 4.14-2.19 6.3-5.81 8.46-9.78.53 1.47 1.1 2.92 1.64 4.38.02 1.19.06 2.37.13 3.56-.07 2.67-.17 5.35-.28 8.02-.99-1.62-1.91-3.35-3.04-4.87-1.75-.96-2.49.97-3.77 1.86-.91.62-1.82 1.22-2.74 1.82-1.53.65-3.06 1.31-4.6 1.95-.82.31-1.63.63-2.44.97-2.19.88-4.15 2.13-6.13 3.4-1.47.27-2.95.45-4.43.7-2.83.32-5.53 1.23-8.33 1.67-1.8-1.5-2.49-3.46-4.99-3.82-5.59-2.11-7.25-6.66-11.14-10.57-4.95-3.96-4.68-9.42-7.1-15.09-1.3-4.72-2.87-9.28-5.45-13.48-2.67-4.4-6.27-7.58-9.19-11.81-1.92-2.72-3.31-5.7-4.59-8.77-.21-2.5-.52-5.29.07-7.76 1.43-2.33 5.52-1.32 7.87-1.44"/><path fill="#a693a6" d="M127.97 367.32c1.35 2.88 1.61 6.49 2.05 9.62.53 4.53 1.41 8.6.28 13.14-.11-6.83-.64-14.09-2.52-20.68l-1.62-.25c-.65 5.94.06 12.11.52 18.06.38 1.99.02 4.09 2.13 5.11-1.14.69-2.33 1.29-3.5 1.93-.64-6.73-.7-13.54-1.54-20.25-.14-1.6-.89-2.89-1.63-4.27.92-.6 1.83-1.2 2.74-1.82 1.02-.24 2.06-.44 3.09-.59"/><path fill="#e7dbe0" d="m126.16 369.15 1.62.25c1.88 6.59 2.41 13.85 2.52 20.68-.41.79-.9 1.53-1.49 2.24-2.11-1.02-1.75-3.12-2.13-5.11-.46-5.95-1.17-12.12-.52-18.06"/><path fill="#e9d8db" d="M122.14 369.73c.74 1.38 1.49 2.67 1.63 4.27.84 6.71.9 13.52 1.54 20.25-1.34.56-3.78 2.76-5.14 1.73-1.07-8.05-1.47-16.23-2.63-24.3 1.54-.64 3.07-1.3 4.6-1.95"/><path fill="#e6ced2" d="M115.1 372.65c2.92 3.41 1.95 7.04 2.55 11.19.35 4.36 1.67 9.68.33 13.89-1.11 1.13-2.5 2.03-3.87 2.79-.86-.22-1.72-.47-2.56-.74-1.24-7.85-1.15-15.88-2.58-23.73 1.98-1.27 3.94-2.52 6.13-3.4"/><path fill="#4e354b" d="M152.985 403.755c1.728 3.887 1.944 4.751 3.155 6.415-.47 3.52 2.94 7.03 4.9 9.67-.88 3.17-1.27 5.95-.45 9.19l.32 1.78c.06 3.53.07 7.06.16 10.58-.69-.34-1.38-.67-2.08-1-.69.35-1.38.7-2.08 1.04.16-5.72.45-11.08-1.89-16.46-2.96-7.67-6.32-14.85-7.95-22.99-.79-3.32-1.42-7.65-3.76-10.25-1.49-1.67-3.65-2.48-5.65-1.13-3.07 2.23-5.28 5.45-8.5 7.57-3.34 2.44-7.13 2.11-10.94 4.04-5.29 2.58-10.39 4.81-16.39 5.12-3.53.06-7.31-1.37-10.68-2.34 1.47-.93 3.11-1.42 4.78-1.88 5.65 2.65 12.95.05 18.18-2.59 1.37-.76 2.76-1.66 3.87-2.79 1.34-4.21.02-9.53-.33-13.89-.6-4.15.37-7.78-2.55-11.19.81-.34 1.62-.66 2.44-.97 1.16 8.07 1.56 16.25 2.63 24.3 1.36 1.03 3.8-1.17 5.14-1.73 1.17-.64 2.36-1.24 3.5-1.93.59-.71 1.08-1.45 1.49-2.24 1.13-4.54.25-8.61-.28-13.14-.44-3.13-.7-6.74-2.05-9.62-1.03.15-2.07.35-3.09.59 1.28-.89 2.02-2.82 3.77-1.86 1.13 1.52 2.05 3.25 3.04 4.87.11-2.67.21-5.35.28-8.02 3.68 5.72 1.77 14.09 3.73 20.63 4.23 1.71 8.31 1.48 11.45 5.33 3.95 4.58 3.23 10.17 5.79 15.02Z"/><path fill="#412c3e" d="M96.21 378.42c2.8-.44 5.5-1.35 8.33-1.67l-.58.49c-.74.61-1.47 1.22-2.2 1.84-1.95.59-3.93 1.05-5.9 1.59-1.35.38-2.64.9-3.84 1.62-.08 1.32.31 2.72.62 4 1.41 5.23 2.03 10.62 3.17 15.94l.12.88c-1.67.46-3.31.95-4.78 1.88-.78.76-1.48 1.6-2.07 2.52-.97 1.59-1.72 3.35-2.43 5.07-1.39 2.37-2.41 4.87-3.46 7.39-.61-4.35-.63-8.71-.41-13.09 1.28-3.03 3.99-5.64 5.76-8.41.96-1.22.39-2.93.18-4.32-.88-4.67-3.23-9.21-3.64-13.92 1.72-2.13 4.09-3.82 6.14-5.63 2.5.36 3.19 2.32 4.99 3.82"/><path fill="#a4869a" d="M108.97 376.05c1.43 7.85 1.34 15.88 2.58 23.73.84.27 1.7.52 2.56.74-5.23 2.64-12.53 5.24-18.18 2.59l-.12-.88-.05-1.95c1.85 1.6 2.99 3.25 5.72 2.92-.23-3.43-.96-6.81-1.29-10.23-.48-3.9-.5-8.02-1.47-11.82-.95-.2-1.9-.35-2.86-.48 1.97-.54 3.95-1 5.9-1.59.06 7.07 1.03 14.7 2.53 21.61.8 2.73 3.62 1.46 5.21.25-.04-4.03-.88-8.07-1.33-12.08-.52-3.5-.66-7.16-1.58-10.58-.86-.38-1.74-.73-2.63-1.04l.58-.49c1.48-.25 2.96-.43 4.43-.7"/><path fill="#e3cecf" d="M103.96 377.24c.89.31 1.77.66 2.63 1.04.92 3.42 1.06 7.08 1.58 10.58.45 4.01 1.29 8.05 1.33 12.08-1.59 1.21-4.41 2.48-5.21-.25-1.5-6.91-2.47-14.54-2.53-21.61.73-.62 1.46-1.23 2.2-1.84"/><path fill="#e6c7c8" d="M95.86 380.67c.96.13 1.91.28 2.86.48.97 3.8.99 7.92 1.47 11.82.33 3.42 1.06 6.8 1.29 10.23-2.73.33-3.87-1.32-5.72-2.92l.05 1.95c-1.14-5.32-1.76-10.71-3.17-15.94-.31-1.28-.7-2.68-.62-4 1.2-.72 2.49-1.24 3.84-1.62"/><path fill="#daced2" d="M143.31 391.73c2.34 2.6 2.97 6.93 3.76 10.25 1.63 8.14 4.99 15.32 7.95 22.99.53 5.02 1.51 10.55.67 15.52-.62 3.97-1.65 7.85-2.93 11.65-2.36 4.22-4.36 9.58-8.04 12.79l-.64-1.16c.4-3.06 1.93-6.4 1.56-9.49-1.94-1.45-5-1.75-7.27-2.78-2.4-1.03-4.48-.36-7.01-.42 1.52-1.04 2.41-2.42 1.9-4.32-1.8.15-3.63-.2-5.42-.33-.98.77-1.49 2.19-2.26 3.18-.8-.23-1.54-.56-2.3-.91.8-.37 1.58-.76 2.36-1.18q-.18-.975-.51-1.86c-.82.27-1.64.52-2.47.76-1.06-1.01-.91-3.07-1.66-4.34-1.14-.31-2.34-.44-3.49-.71.29-.94.54-1.9.87-2.83-.58.33-1.16.68-1.71 1.05-.46 1.03-.85 2.09-1.2 3.17-1.02-3.33-3.01-6.15-4.17-9.43-.72-.01-1.33 1.67-1.85 2.16-.82-1.36-1.41-3.09-2.55-4.21-3.44-1.68-6.05.09-9.23 1.3-.92-.34-1.04-1.08-1.41-1.89 1.54-.75 3.17-.6 3.93-2.29-1.63.13-3.2.39-4.84.44-1.04-2.13-1.79-4.22-3.51-5.94-1.22-3.56-2.14-7.08-1.83-10.89-.14-1.55.69-3.54-.93-4.5.59-.92 1.29-1.76 2.07-2.52 3.37.97 7.15 2.4 10.68 2.34 6-.31 11.1-2.54 16.39-5.12 3.81-1.93 7.6-1.6 10.94-4.04 3.22-2.12 5.43-5.34 8.5-7.57 2-1.35 4.16-.54 5.65 1.13"/><path fill="#61495b" d="M82.78 406.88c-.22 4.38-.2 8.74.41 13.09 1.05-2.52 2.07-5.02 3.46-7.39 1.72 8.63 3.02 17.16 6.56 25.3-.39.46-.8.9-1.22 1.33-1.02-.5-2.62.22-3.47.83-3.28-5.54-5.23-11.21-5.93-17.62-.48-5.02-1.08-10.61.19-15.54"/><path fill="#fff9ff" d="M89.08 407.51c1.62.96.79 2.95.93 4.5-.31 3.81.61 7.33 1.83 10.89.44 3.07 1.01 6.07 2.26 8.93 2.29 5.3 3.85 10.51 7.29 15.24 3.73 6.23 8.05 12.03 12.26 17.93 2.56 4.59 5.7 8.64 8.89 12.78l-1.5.45c-11.2-12.06-20.34-25.72-27.83-40.35-3.54-8.14-4.84-16.67-6.56-25.3.71-1.72 1.46-3.48 2.43-5.07"/><path fill="#856778" d="M161.04 419.84c3.7 3.03 6.92 6.52 10.06 10.13 1.88 3.86 2.91 7.91 4.3 11.94.55-1.32 1.04-2.67 1.48-4.03-1.11 7.43-.8 14.92-1.63 22.35.04-4.75.27-9.52.1-14.27-.03-1.82-1.1-2.92-2.02-4.38-3.27-4.98-6.77-10.59-11.51-14.29-.63.08-1.03.66-1.23 1.74-.82-3.24-.43-6.02.45-9.19"/><path fill="#d2c3ca" d="M91.84 422.9c1.72 1.72 2.47 3.81 3.51 5.94 1.64-.05 3.21-.31 4.84-.44-.76 1.69-2.39 1.54-3.93 2.29.37.81.49 1.55 1.41 1.89 3.18-1.21 5.79-2.98 9.23-1.3 1.14 1.12 1.73 2.85 2.55 4.21.52-.49 1.13-2.17 1.85-2.16 1.16 3.28 3.15 6.1 4.17 9.43.35-1.08.74-2.14 1.2-3.17.55-.37 1.13-.72 1.71-1.05-.33.93-.58 1.89-.87 2.83 1.15.27 2.35.4 3.49.71.75 1.27.6 3.33 1.66 4.34.83-.24 1.65-.49 2.47-.76q.33.885.51 1.86c-.78.42-1.56.81-2.36 1.18.76.35 1.5.68 2.3.91.77-.99 1.28-2.41 2.26-3.18 1.79.13 3.62.48 5.42.33.51 1.9-.38 3.28-1.9 4.32 2.53.06 4.61-.61 7.01.42 2.27 1.03 5.33 1.33 7.27 2.78.37 3.09-1.16 6.43-1.56 9.49-.69-.93-1.37-1.9-2.18-2.73-1.18.35-2.31.83-3.49 1.15-.87-.95-1.57-2.03-2.53-2.9-2.22.11-2.45 1.87-3.63 3.36-.22-.91-.5-1.8-.86-2.65-1.8-1.02-2.06-1.6-2.79-3.52-.8 1.12-1.54 2.28-2.38 3.37-.02-1.08-.04-2.16-.08-3.23-1.16 0-.97 1.16-2.17.55-1.63-.87-2.9-.03-4.58-.11-.91-1.08-1.43-2.85-2.74-3.41-2.11-.96-3.89-2.12-5.73-3.51-.43.85-.81 1.73-1.22 2.59-1.09-.18-2.19-.48-3.24-.81.69-1.22 1.48-2.37 2.22-3.56-1.08.07-2.18.23-3.27.2-1.6-.88-2.08-2.93-4.02-1.49-3.44-4.73-5-9.94-7.29-15.24-1.25-2.86-1.82-5.86-2.26-8.93"/><path fill="#846b7f" d="M155.02 424.97c2.34 5.38 2.05 10.74 1.89 16.46.7-.34 1.39-.69 2.08-1.04.7.33 1.39.66 2.08 1-.09-3.52-.1-7.05-.16-10.58 1.69 7.33.45 14.79-1.1 22.01-.39 1.74-.94 3.42-1.4 5.14-.2-1.75-.22-3.55-.58-5.28-1.67-.3-3.38-.4-5.07-.54 1.28-3.8 2.31-7.68 2.93-11.65.84-4.97-.14-10.5-.67-15.52"/><path fill="#cdb8c5" d="M161.82 427.29c4.74 3.7 8.24 9.31 11.51 14.29-1.93 3.09-1.85 6.14-2.18 9.6q-1.05-.15-2.1-.27c-1.91 3.39-2.6 7.55-4.11 11.16-1.31 3.37-3.45 5.88-3.63 9.66-.65.69-1.31 1.37-1.99 2.03.21-6.98.16-13.97.49-20.94 1.55-7.22 2.79-14.68 1.1-22.01l-.32-1.78c.2-1.08.6-1.66 1.23-1.74"/><path fill="#473244" d="M91.99 439.21c.42-.43.83-.87 1.22-1.33 7.49 14.63 16.63 28.29 27.83 40.35 1.56 1.75 3.26 3.34 5.08 4.8l-3.35 3.26c-6.39-4.73-11.3-10.76-15.88-17.19-7.07-9.07-13.33-18.72-18.37-29.06.85-.61 2.45-1.33 3.47-.83"/><path fill="#bea7b7" d="M173.33 441.58c.92 1.46 1.99 2.56 2.02 4.38.17 4.75-.06 9.52-.1 14.27-.73 4.91-.94 9.82-1.32 14.76-.31.67-.66 1.32-1.06 1.95-3.01 1.4-6.04 2.71-8.88 4.47-1.72-.67-1.01-2.16-1.43-3.65-.74-.23-1.47-.44-2.21-.66.37-1.8.8-3.54.96-5.37.18-3.78 2.32-6.29 3.63-9.66 1.51-3.61 2.2-7.77 4.11-11.16q1.05.12 2.1.27c.33-3.46.25-6.51 2.18-9.6"/><path fill="#c1afbb" d="M105.41 448.56c1.09.03 2.19-.13 3.27-.2-.74 1.19-1.53 2.34-2.22 3.56 1.05.33 2.15.63 3.24.81.41-.86.79-1.74 1.22-2.59 1.84 1.39 3.62 2.55 5.73 3.51 1.31.56 1.83 2.33 2.74 3.41 1.68.08 2.95-.76 4.58.11 1.2.61 1.01-.55 2.17-.55.04 1.07.06 2.15.08 3.23.84-1.09 1.58-2.25 2.38-3.37.73 1.92.99 2.5 2.79 3.52.36.85.64 1.74.86 2.65 1.18-1.49 1.41-3.25 3.63-3.36.96.87 1.66 1.95 2.53 2.9 1.18-.32 2.31-.8 3.49-1.15.81.83 1.49 1.8 2.18 2.73l.64 1.16c-1.9 1.53-3.83 3.13-5.9 4.41-1.2-.25-2.37-.66-3.56-.97.29 1.07.4 2.17.61 3.26-1.35-.97-2.72-2.2-4.27-2.83-.83.7-1.19 1.46-2.41 1.3-3.22-.29-6.02.81-9.12 1.32-1.22-1.71-.35-3.48-.48-5.45-2.08-.54-3.76-1.26-5.6-2.38l-.34 1.41c-4.21-5.9-8.53-11.7-12.26-17.93 1.94-1.44 2.42.61 4.02 1.49"/><path fill="#ad98aa" d="M152.76 452.14c1.69.14 3.4.24 5.07.54.36 1.73.38 3.53.58 5.28.46-1.72 1.01-3.4 1.4-5.14-.33 6.97-.28 13.96-.49 20.94.68-.66 1.34-1.34 1.99-2.03-.16 1.83-.59 3.57-.96 5.37.74.22 1.47.43 2.21.66.42 1.49-.29 2.98 1.43 3.65-4.51 3.26-9.57 7.44-15.04 8.81-7.8.04-16.01-3.66-22.83-7.19a42 42 0 0 1-5.08-4.8l1.5-.45c-3.19-4.14-6.33-8.19-8.89-12.78l.34-1.41c1.84 1.12 3.52 1.84 5.6 2.38.13 1.97-.74 3.74.48 5.45 3.1-.51 5.9-1.61 9.12-1.32 1.22.16 1.58-.6 2.41-1.3 1.55.63 2.92 1.86 4.27 2.83-.21-1.09-.32-2.19-.61-3.26 1.19.31 2.36.72 3.56.97 2.07-1.28 4-2.88 5.9-4.41 3.68-3.21 5.68-8.57 8.04-12.79"/><path fill="#633f58" d="M172.87 476.94c-1.23 2.11-2.61 4.31-3.42 6.62l1.26.56c-4.91 3.51-10.22 6.36-15.69 8.91-4.03 1.74-7.79 3.3-12.28 2.36-7.09-1.31-14.34-4.56-19.97-9.1l3.35-3.26c6.82 3.53 15.03 7.23 22.83 7.19 5.47-1.37 10.53-5.55 15.04-8.81 2.84-1.76 5.87-3.07 8.88-4.47"/></g><path fill="#ded9de" d="M201 348.61c2.86 1.25 5.46 3.51 8.06 5.25 2.15 1.51 4.57 2.84 6.51 4.61.38 2.86-.67 6.02-1.3 8.79-1.58 5.96-2.76 11.99-3.94 18.03-.97 5.06-2.74 9.84-4.12 14.77-3.09 12.51-3.16 24.38-4.28 37.09-.16 3.62-.7 7.87.53 11.34.81 2.07 3.73 1.82 5.53 1.72 2.08-.23 5.28-1.14 6.02-3.37.77-3.5.19-7.38.19-10.96 2.38-20.33 6.93-40.57 12.4-60.28 1.33-4.29 1.67-9.82 4.31-13.49 2.99 1.45 5.61 3.92 9.09 3.91 4.77.22 8.99-2.12 13.82-3.07-5.12 21.38-10.14 41.87-10.12 64.05.19 6.55-1.27 13.72.24 20.1.69 1.99 1.39 5.29 4.09 5.09 2.23.12 5.13.14 7.09-1.08 1.65-3.12 1.2-7.64 1.31-11.11-.28-7.11.5-14.11 1.38-21.15.03 4.16 2.81 6.43 4.05 10.33.49 1.9 2.5 3.06 3 4.78-.66 2-1.87 3.51-1.78 5.64 1.89.3 3.8.44 5.69.77.37 2.25.57 4.81-.15 7.01-1.03.42-2.05.84-3.07 1.27-.47 1.59-.68 3.25-1.1 4.85-6.85 2.79-14.36 3.07-21.24.24-2.67-4.75-3.08-9.4-2.3-14.71-.14-7.63.61-15.17.61-22.75.82-4.47-.98-8.85.63-12.98.89-3.14 1.47-6.36 2.29-9.52.56-2.11-.28-3.8-.93-5.76-.34 1.16-.69 2.32-1.06 3.47-1.59.41-3.23.6-4.81 1.05l-1.26 3.03c-2.81.97-7.7-.66-8.68 2.85 1.89 5.74 1.51 11.47 1.12 17.41h-1.66c-.34-3.79.11-7.7-.44-11.45-.88-.48-1.79-.9-2.74-1.27.85 6.29.49 12.54.43 18.86.02 3.49 2.72 4.74 4.19 7.45.42 1.96.46 4.01.84 5.98 1.07.4 2.14.8 3.21 1.19.57 2.07.73 4.72-.1 6.73-.93.47-1.86.96-2.78 1.45-.49.91-.98 1.82-1.45 2.73-2.15.58-4.48.41-6.61 1.02-.95 1.71-1.54 2.93-3.31 3.92-1.29.65-1.38 3.02-2.75 3.33-4.71.71-9.63-.22-14.38.45-.3 2.54-.24 5.04-.54 7.59-2.31.33-4.87.5-7.14-.16-.39-1.08-.79-2.15-1.19-3.23-2.34-.48-4.81-.44-7.19-.78-.54-2.27-.29-4.59-1.03-6.82-1.7 4.33-1.37 8.79-.2 13.2 1.22 4.52 1.41 9.17.84 13.8l-1.66.02c-.33-3.6-.02-7.21-.24-10.85-1.12.68-.93 2.71-1.19 3.87-.7 6-.75 12.6.95 18.43 1.94 2.96 6.32 4.29 9.2 6.27-2.17.89-4.39 1.68-6.62 2.44h-8.8c.47-6.3.8-12.57 1.76-18.81 1.82-9.62 2.01-19.4 3.18-29.16 1.45-11.92 1.19-23.63 3.27-35.26.7-4.3 1.28-8.66 2.21-12.89 1.65-7.65 4.66-14.74 6.63-22.35 2.51-9.5 5.79-19.53 6.33-29.37-2.64 3.95-4.62 8.35-6.88 12.63-2.29 2.11-4.51 4.37-6.98 6.27a67 67 0 0 1 2.85-7.16c2.91-5.44 6.78-12.05 12.17-15.29"/><path fill="#5d3c4b" d="M199.84 352.16c-.54 9.84-3.82 19.87-6.33 29.37-1.97 7.61-4.98 14.7-6.63 22.35-.93 4.23-1.51 8.59-2.21 12.89-2.08 11.63-1.82 23.34-3.27 35.26-1.17 9.76-1.36 19.54-3.18 29.16.01-4.68.17-9.89-1.22-14.4-1.05 2.73-1.83 5.54-3.07 8.2.38-4.94.59-9.85 1.32-14.76.83-7.43.52-14.92 1.63-22.35.64-5.22 1.5-10.41 2.15-15.64 1.69-9.45 2.98-18.8 6.33-27.86 2.89-9.45 7.56-19.66 7.6-29.59 2.26-4.28 4.24-8.68 6.88-12.63"/><path fill="#482d43" d="M177 466.79c1.39 4.51 1.23 9.72 1.22 14.4-.96 6.24-1.29 12.51-1.76 18.81h-6.49c.79-5.53 2.26-10.97 2.82-16.53-.69.2-1.39.42-2.08.65l-1.26-.56c.81-2.31 2.19-4.51 3.42-6.62.4-.63.75-1.28 1.06-1.95 1.24-2.66 2.02-5.47 3.07-8.2"/><path fill="#967c96" d="M323.49 352.69c3.51.61 7.16 1.12 10.56 2.17-7.79-.63-15.61-.32-23.34.76-6.27.88-12.28 2.79-18.55 3.64-7.55 1.06-15.06 1.52-22.46 3.48.38-1.16.3-2.99 1.27-3.8 2.74-1.26 6.05-1.49 9.01-2 7.76-1.07 15.48-2.43 23.22-3.68 6.55-.74 13.77-1.78 20.29-.57"/><path fill="#9c638a" d="M404.1 352.93c2.94 1.33 5.68 3 8.39 4.75 1.75 1.3 3.44 2.37 4.34 4.46-3.66-.05-9.9.75-12.35-2.66-1.87-2.19-.8-4.06-.38-6.55"/><path fill="#fcfafc" d="M225.78 354.22c.96 2.24.4 4.28 0 6.57-1.41 6.7-3.01 13.32-4.97 19.88-2.16 8.71-4.16 17.52-5.48 26.4-1.24 10.21-3.99 19.61-3.37 30.04l-1.15.57c-1.96-.04-3.94-.22-5.86-.65-.29-1.29-.45-2.64-.45-4.02.41-13 3.68-24.56 6.03-37.18 1.97-10.58 5.57-20.75 7.86-31.3.82-3.29 1.39-7.11 3.17-10.03 1.38-.61 2.77-.48 4.22-.28"/><path fill="#dad3d7" d="M334.05 354.86c2.34 1.01 3.77 2.95 4.98 5.1 3.41 6.45 5.6 13.17 8.21 19.85 1.19 3.3 3.5 5.54 2.92 9.11-7.91 1.9-13.36 6.78-19.73 11.5-7.12 5.31-12.75 11.96-17.72 19.28-1.4 2.14-3.16 3.88-5.1 5.52.97-8.68.43-17.37 1.67-26.01 1.13-8.38 1.45-16.98.53-25.4-1.09 1.84-1.67 3.76-2.14 5.83-1.35 6.21-3.16 11.96-3.74 18.31-1.05 12.82-.19 25.61 1.91 38.28.44 3.52.96 7 1.32 10.54-.02 1.19-.04 2.38-.08 3.57-1.81-2.1-1.78-4.49-2.43-7.04-2.6-2.05-7.16.72-10.17-.1-2.46-.69-4.7-1.58-7.32-1.27l.07.88c.16 2.53.76 4.81 1.77 7.13 2.96 6.94 5.97 13.6 10.19 19.88-.69.26-1.36.57-2.02.9.23 1.35.8 2.8.69 4.16-.67 1.54-2.82 1.11-4.22 1.47.29 1.82 1 3.72.98 5.57-1.4 2.24-5.18 3.58-2.52 6.54.91.06 1.82.1 2.74.11-1.04.85-2.14 1.68-3.09 2.62.54 1.26 1.28 2.45 1.8 3.71-.64 1.29-1.49 2.48-2.16 3.75.47.46.95.91 1.45 1.35H185.26c2.23-.76 4.45-1.55 6.62-2.44-2.88-1.98-7.26-3.31-9.2-6.27-1.7-5.83-1.65-12.43-.95-18.43.26-1.16.07-3.19 1.19-3.87.22 3.64-.09 7.25.24 10.85l1.66-.02c.57-4.63.38-9.28-.84-13.8-1.17-4.41-1.5-8.87.2-13.2.74 2.23.49 4.55 1.03 6.82 2.38.34 4.85.3 7.19.78.4 1.08.8 2.15 1.19 3.23 2.27.66 4.83.49 7.14.16.3-2.55.24-5.05.54-7.59 4.75-.67 9.67.26 14.38-.45 1.37-.31 1.46-2.68 2.75-3.33 1.77-.99 2.36-2.21 3.31-3.92 2.13-.61 4.46-.44 6.61-1.02.47-.91.96-1.82 1.45-2.73.92-.49 1.85-.98 2.78-1.45.83-2.01.67-4.66.1-6.73-1.07-.39-2.14-.79-3.21-1.19-.38-1.97-.42-4.02-.84-5.98-1.47-2.71-4.17-3.96-4.19-7.45.06-6.32.42-12.57-.43-18.86.95.37 1.86.79 2.74 1.27.55 3.75.1 7.66.44 11.45h1.66c.39-5.94.77-11.67-1.12-17.41.98-3.51 5.87-1.88 8.68-2.85l1.26-3.03c1.58-.45 3.22-.64 4.81-1.05.37-1.15.72-2.31 1.06-3.47.65 1.96 1.49 3.65.93 5.76-.82 3.16-1.4 6.38-2.29 9.52-1.61 4.13.19 8.51-.63 12.98 0 7.58-.75 15.12-.61 22.75-.78 5.31-.37 9.96 2.3 14.71 6.88 2.83 14.39 2.55 21.24-.24.42-1.6.63-3.26 1.1-4.85 1.02-.43 2.04-.85 3.07-1.27.72-2.2.52-4.76.15-7.01-1.89-.33-3.8-.47-5.69-.77-.09-2.13 1.12-3.64 1.78-5.64-.5-1.72-2.51-2.88-3-4.78-1.24-3.9-4.02-6.17-4.05-10.33 2.57-19.06 6.42-37.67 11.89-56.11 7.4-1.96 14.91-2.42 22.46-3.48 6.27-.85 12.28-2.76 18.55-3.64 7.73-1.08 15.55-1.39 23.34-.76"/><path fill="#fefcfd" d="M265.87 356.27c.26 3.42-.71 6.55-1.6 9.8-1.23 4.28-2.05 8.66-3.2 12.97-3.13 10.91-4.03 22.73-5.53 33.94-1.44 7.3-1.69 14.62-1.92 22.04-.2 1.42.27 2.65-1.24 3.45-1.87.63-4.09.43-5.99.08-1.25-2.08-.72-5.22-.66-7.55.53-5.21.4-10.53 1.35-15.66 1.08-5.75 1.83-11.54 2.67-17.32 1.21-8.6 4.58-16.7 6.02-25.08.88-5.19 2.04-10.44 3.89-15.37.71-2.21 4.73-3.25 6.21-1.3"/><path fill="#bd8a9b" d="M189.9 369.86c-.55 3.67-1.4 7.33-2.69 10.81-1.63-.74-2.94-1.16-4.74-1.22 2.19-3.3 4.16-7.36 7.43-9.59"/><path fill="#512a49" d="M412.01 370.67c3.93 7.13 2.77 16.18-1.37 22.96-3.54 6.8-9.76 11.69-17.11 13.76-3.76.86-7.32.36-10.71-1.46 2.22-1.23 4.66-2.1 6.96-3.19 4.27-1.72 6.31-7.51 7.42-11.6.6-1.79.09-5.97 1.62-6.93.59 4.37-.12 8.55-.43 12.89-.22 1.07 1.05 2.07 1.71 2.77 6.73-2.67 9.72-10.29 10.62-16.97.58-4.33-.76-8.09-2.2-12.08 1.13-.24 2.34-.05 3.49-.15"/><path fill="#765872" d="M309.81 373.81c.92 8.42.6 17.02-.53 25.4-1.24 8.64-.7 17.33-1.67 26.01-.2-1.75-.6-3.45-1.09-5.13-.58 1.35-.93 2.63-.82 4.1.25 4.03.25 8 .14 12.04-2.1-12.67-2.96-25.46-1.91-38.28.58-6.35 2.39-12.1 3.74-18.31.47-2.07 1.05-3.99 2.14-5.83"/><path fill="#6e5064" d="M350.16 388.92c.16.68.31 1.35.48 2.03-8.71 2.27-14.84 7.54-21.58 13.12-6.7 5.35-12.43 11.97-16.42 19.58-2.62 4.84-1.95 11.27-1.85 16.62-.54-3-.64-6.06-1.17-9.06-.75-2.15-2.26-3.56-2.01-5.99 1.94-1.64 3.7-3.38 5.1-5.52 4.97-7.32 10.6-13.97 17.72-19.28 6.37-4.72 11.82-9.6 19.73-11.5"/><path fill="#dbd1d3" d="M350.64 390.95c4.8 12.5 8.22 25.67 11.53 38.64-.65-.07-1.31-.11-1.97-.15 2.38 9.56 5.39 18.97 7.87 28.5 1.67 7.68 4.28 15.05 6.43 22.59 1.93 6.83 5.72 12.74 7.94 19.47h-61.43c-1.77-13.86-5.15-27.55-7.7-41.28-1.13-6.12-1.43-12.33-2.52-18.45-.1-5.35-.77-11.78 1.85-16.62 3.99-7.61 9.72-14.23 16.42-19.58 6.74-5.58 12.87-10.85 21.58-13.12"/><path fill="#bea7b4" d="M177.09 417.87c.91 1.37 1.48 2.8 1.94 4.37-.65 5.23-1.51 10.42-2.15 15.64-.44 1.36-.93 2.71-1.48 4.03-1.39-4.03-2.42-8.08-4.3-11.94 1.52 1.35 3.15 2.67 4.93 3.68.69-3.71-.69-6.94-.28-10.68.22-1.76.74-3.44 1.34-5.1"/><path fill="#563549" d="M306.52 420.09c.49 1.68.89 3.38 1.09 5.13-.25 2.43 1.26 3.84 2.01 5.99.53 3 .63 6.06 1.17 9.06 1.09 6.12 1.39 12.33 2.52 18.45 2.55 13.73 5.93 27.42 7.7 41.28h-6.04l-.05-.86c.92-9.25-1.31-17.57-3.68-26.38-.71-4.32-1.3-8.66-2.05-12.97-.72-4.33-1.51-8.65-2.03-13.02-.36-3.54-.88-7.02-1.32-10.54.11-4.04.11-8.01-.14-12.04-.11-1.47.24-2.75.82-4.1"/><path fill="#fdf8fe" d="M360.2 429.44c.66.04 1.32.08 1.97.15 2.08 7.25 4.22 14.48 6.54 21.65 5.08 16.66 9.8 33.5 18.37 48.76h-4.64c-2.22-6.73-6.01-12.64-7.94-19.47-2.15-7.54-4.76-14.91-6.43-22.59-2.48-9.53-5.49-18.94-7.87-28.5"/><path fill="#271221" d="M214.2 435.88c0 3.58.58 7.46-.19 10.96-.74 2.23-3.94 3.14-6.02 3.37-1.8.1-4.72.35-5.53-1.72-1.23-3.47-.69-7.72-.53-11.34 3.29 1.48 5.4 1.46 8.88.53l1.15-.57c.75-.4 1.5-.81 2.24-1.23"/><path fill="#bcafc9" d="M205.22 440.25c1.52-.1 3.03-.09 4.54.05.04 1.66.21 3.12-1.08 4.37-2.89.05-3.42-1.95-3.46-4.42"/><path fill="#e8cee7" d="M251.75 441.17c.07 3.29-.77 3.67-3.68 4.6-.46-1.12-1.26-2.89-.24-3.91.59-1.25 2.81-.71 3.92-.69"/><path fill="#cebdcb" d="M287.16 441.93c2.62-.31 4.86.58 7.32 1.27 3.01.82 7.57-1.95 10.17.1.65 2.55.62 4.94 2.43 7.04-.1 2.63.45 4.11-2.53 5.07.49-.89.97-1.78 1.43-2.68-4.36-1.78-9.44-2.16-14.12-2.4-1.52-2.52-2.94-5.1-4.63-7.52z"/><path fill="#a68fa4" d="M287.23 442.81c1.69 2.42 3.11 5 4.63 7.52 1.82 3.25 4.82 4.28 7.45 6.58-.08 1.52-1.05 2.27.11 3.61 1.34.03 2.9-.99 4.14-.74 2.94 1.78 3.98 5.27 5.44 8.17.21-2.71.3-5.43.19-8.16.75 4.31 1.34 8.65 2.05 12.97.01 2.01-.04 4.03-.11 6.04-1.55-1.69-2.36-3.52-4.85-3.9.35 5.42 2.79 9.94 4.49 15.32-4.36-6.57-6.96-13.98-11.58-20.4-4.22-6.28-7.23-12.94-10.19-19.88-1.01-2.32-1.61-4.6-1.77-7.13"/><path fill="#bea9bb" d="M307.16 446.77c.52 4.37 1.31 8.69 2.03 13.02.11 2.73.02 5.45-.19 8.16-1.46-2.9-2.5-6.39-5.44-8.17-1.24-.25-2.8.77-4.14.74-1.16-1.34-.19-2.09-.11-3.61-2.63-2.3-5.63-3.33-7.45-6.58 4.68.24 9.76.62 14.12 2.4-.46.9-.94 1.79-1.43 2.68 2.98-.96 2.43-2.44 2.53-5.07.04-1.19.06-2.38.08-3.57"/><path fill="#d0c3cc" d="M297.17 470.72c.66-.33 1.33-.64 2.02-.9 4.62 6.42 7.22 13.83 11.58 20.4 1.13 3.13 2.44 6.06 4.15 8.92l.05.86h-22.13c-.5-.44-.98-.89-1.45-1.35.67-1.27 1.52-2.46 2.16-3.75-.52-1.26-1.26-2.45-1.8-3.71.95-.94 2.05-1.77 3.09-2.62-.92-.01-1.83-.05-2.74-.11-2.66-2.96 1.12-4.3 2.52-6.54.02-1.85-.69-3.75-.98-5.57 1.4-.36 3.55.07 4.22-1.47.11-1.36-.46-2.81-.69-4.16"/><path fill="#8c738d" d="M311.24 472.76c2.37 8.81 4.6 17.13 3.68 26.38-1.71-2.86-3.02-5.79-4.15-8.92-1.7-5.38-4.14-9.9-4.49-15.32 2.49.38 3.3 2.21 4.85 3.9.07-2.01.12-4.03.11-6.04"/></svg></svg>